<svg width="301" height="325" viewBox="0 0 301 325" fill="none" xmlns="http://www.w3.org/2000/svg">
<g filter="url(#filter0_d)">
<path d="M280.896 89.2023H178.729L149.667 74.4156L148.927 74.2994L124.632 78.1674L123.867 78.6166L113.78 91.3236L113.509 92.1024V109.397L99.8374 113.322C74.3548 77.0156 26.7566 9.02657 25.0862 5.97905C24.8932 5.48298 24.483 5.13261 23.972 5.03201C23.0403 4.84642 21.8878 5.39105 18.7555 8.71783C17.1077 10.4679 15.6475 12.2181 15.5867 12.2926L15.3086 12.924L10 52.1515L10.0052 52.5193L12.1293 65.7795L12.1676 65.946L22.2546 99.0959L22.3102 99.245L38.2359 134.606L38.2603 134.657L53.9774 165.736L46.1241 197.883L46.0876 198.181V245.698L46.1501 246.088L63.6681 299.681L65.8374 300L76.4546 284.53L76.644 284.091L80.7984 265.171L88.4345 258.812L88.8812 257.853V213.256L130.748 188.201L131.178 187.769L150.165 155.551L150.291 155.254L160.411 119.28L179.509 100.483L281 91.6809L280.896 89.2023ZM170.135 87.6083L166.707 93.4761H151.566L150.488 77.6123L170.135 87.6083ZM151.802 101.94L157.364 116.868L139.386 112.507C139.188 109.338 138.482 99.6977 138.205 95.9582H149.572L151.802 101.94ZM147.192 152.42L116.199 135.097C118.32 133.248 122.653 129.46 126.945 125.656C130.456 122.545 133.255 120.028 135.264 118.179C136.219 117.301 136.999 116.568 137.599 115.986L147.192 152.42ZM147.987 76.9619L149.108 93.4761H137.475L127.093 80.2887L147.987 76.9619ZM113.463 111.988L112.933 131.63L101.36 115.463L113.463 111.988ZM100.284 118.189L112.422 135.148L97.7602 148.585L100.284 118.189ZM76.3885 166.827L65.3855 186.395L57.1341 166.827H76.3885ZM58.0692 164.343L77.2716 143.201V164.343H58.0692ZM66.75 188.987L77.9338 169.097L85.6551 208.68L66.75 188.987ZM96.161 153.282L125.174 183.722L80.9201 165.253L96.161 153.282ZM79.7242 163.05V142.294L94.1603 151.712L79.7242 163.05ZM95.2293 149.455L80.3291 139.734L97.7932 118.564L95.2293 149.455ZM78.7056 137.829L61.3354 105.987L97.1605 115.461L78.7056 137.829ZM59.698 102.986L41.4204 69.4827L94.0647 112.075L59.698 102.986ZM56.5535 102.358L25.3417 96.5531L42.4407 76.4884L56.5535 102.358ZM60.8452 61.9463C73.5987 80.1898 86.4338 98.4992 93.2807 108.264L38.6444 64.0589L41.4308 34.1179C46.4317 41.3057 52.7798 50.4084 60.8452 61.9463ZM36.2891 65.2106L40.1463 72.2822L16.5236 65.2349L37.1304 53.8635L36.1414 64.4925L36.2891 65.2106ZM17.69 13.6195C19.8854 11.0074 22.192 8.62416 23.3149 7.77426C24.3683 9.42724 27.6431 14.2752 38.1577 29.4122H15.5519L17.69 13.6195ZM12.4544 52.3042L15.0583 33.0668L36.4125 51.4335L14.2709 63.6513L12.4544 52.3042ZM15.1817 67.4256L40.4922 74.9759L23.5339 94.8741L15.1817 67.4256ZM40.4539 133.552L24.8915 98.9953L56.9533 104.958L40.5913 133.819L40.4539 133.552ZM58.8584 106.584L76.3034 138.563L42.5416 135.364L58.8584 106.584ZM42.6372 137.867L75.9209 141.019L55.5662 163.432L42.6372 137.867ZM55.587 169.482L63.6455 188.591L49.1382 195.879L55.587 169.482ZM48.5402 202.559L61.8829 224.461L48.5402 242.045V202.559ZM48.681 245.934L62.2132 228.1L63.4456 291.1L48.681 245.934ZM62.354 220.506L49.0617 198.689L63.8906 191.24L62.354 220.506ZM78.9177 263.525L78.4987 264.215L74.3044 283.314L65.9817 295.44L64.6711 228.414L85.9819 257.643L78.9177 263.525ZM86.4338 254.082L65.2308 225L86.4338 214.534V254.082ZM88.033 208.054L80.1431 167.614L100.069 175.929L88.033 208.054ZM90.0459 209.677L101.626 178.769L108.857 198.419L90.0459 209.677ZM111.004 197.137L103.768 177.475L127.388 187.332L111.004 197.137ZM129.898 185.103L98.0418 151.679L114.235 136.837L147.415 155.381L129.898 185.103ZM149.156 150.245L139.926 115.194L157.797 119.528L149.156 150.245ZM159.814 116.411L153.938 99.918C154.166 99.9284 160.975 99.7342 160.975 99.7342L160.186 95.9599H166.381L168.503 107.857L159.814 116.411ZM178.121 98.3917L178.115 98.3934L170.622 105.77L168.692 94.9521L172.331 88.7253L177.886 91.5508L182.597 94.0173L178.121 98.3917Z" fill="black"/>
</g>
<defs>
<filter id="filter0_d" x="0" y="0" width="301" height="325" filterUnits="userSpaceOnUse" color-interpolation-filters="sRGB">
<feFlood flood-opacity="0" result="BackgroundImageFix"/>
<feColorMatrix in="SourceAlpha" type="matrix" values="0 0 0 0 0 0 0 0 0 0 0 0 0 0 0 0 0 0 127 0"/>
<feOffset dx="5" dy="10"/>
<feGaussianBlur stdDeviation="7.5"/>
<feColorMatrix type="matrix" values="0 0 0 0 0.415686 0 0 0 0 0.415686 0 0 0 0 0.352941 0 0 0 0.5 0"/>
<feBlend mode="normal" in2="BackgroundImageFix" result="effect1_dropShadow"/>
<feBlend mode="normal" in="SourceGraphic" in2="effect1_dropShadow" result="shape"/>
</filter>
</defs>
</svg>
