<svg width="425" height="226" viewBox="0 0 425 226" fill="none" xmlns="http://www.w3.org/2000/svg">
<g filter="url(#filter0_d)">
<path d="M351.983 110.438C349.269 109.183 346.571 107.906 343.833 106.568C340.201 104.341 334.96 103.068 332.502 99.3406C332.014 100.566 332.598 102.262 331.518 102.588C329.779 103.137 327.837 100.244 326.679 100.877C325.057 101.765 327.038 105.309 325.231 106.177C323.509 106.739 321.478 103.334 319.365 103.831C318.492 104.194 319.086 107.085 318.257 107.294C315.063 107.679 312.182 104.086 309.085 104.161C306.965 104.213 308.827 108.558 307.341 108.556C302.429 108.736 298.273 103.219 293.923 104.142C292.243 104.598 293.387 109.961 291.79 110.87C288.595 112.69 284.063 107.227 280.469 108.736C278.439 109.678 280.938 115.89 278.907 116.456C277.501 116.739 276.056 115.656 274.61 114.667C273.438 113.632 271.407 112.314 270.313 113.82C269.531 114.95 270.625 116.644 270.313 118.15C270.001 118.904 269.219 118.904 268.594 118.714C267.031 118.15 265.469 116.266 263.906 117.396C262.656 118.338 263.906 120.974 262.344 121.35C257.5 122.48 255 116.454 252.501 112.5C251.719 115.7 251.719 119.278 250.938 122.48C249.376 120.408 248.75 117.772 246.719 115.89C245.157 114.572 243.906 116.266 242.969 117.584C241.875 119.466 238.803 123.673 238.803 123.673C238.803 123.673 236.042 116.957 233.751 113.63C232.635 112.009 231.095 109.112 229.376 111.182C226.72 114.382 226.094 119.09 225 123.232C224.218 125.868 222.032 128.88 222.344 130.386C224.532 142.249 234.844 147.709 240.47 158.254C242.658 162.396 241.875 167.48 241.72 172.188C239.376 172 237.658 169.928 235.471 168.988C237.345 174.825 239.378 180.663 240.471 186.877C236.721 183.677 232.816 180.475 228.73 177.86C228.907 180.477 229.378 182.968 229.925 185.44C230.472 187.912 231.097 190.36 231.565 192.901C226.721 189.701 222.346 185.369 218.441 180.663C217.815 187.441 219.066 194.032 219.223 200.81C215.004 197.61 211.254 194.032 207.972 189.135C207.66 188.759 207.19 188.381 206.878 188.571C202.816 192.901 199.378 198.74 194.534 201C195.159 194.222 195.316 187.443 195.784 180.663C191.722 185.559 187.19 190.265 182.034 193.28C182.66 190.739 183.207 188.195 183.713 185.631C184.222 182.923 184.691 180.475 185.159 177.839C180.629 179.911 176.878 184.053 172.66 186.877C174.379 180.851 176.096 174.639 178.909 169.176C176.722 170.494 174.379 171.436 172.191 172.755C171.409 168.236 172.66 163.904 174.691 159.95C180.472 149.593 188.598 142.627 192.66 131.516C188.284 124.926 186.722 116.83 182.971 109.485C182.503 108.731 181.721 108.543 181.097 109.109C178.441 111.558 174.952 122.729 174.952 122.729C174.952 122.729 171.406 120.743 170.468 119.237C169.063 116.977 168.911 116.452 167.192 114.57C166.255 113.44 164.848 113.44 164.067 114.946C162.973 116.828 162.348 119.088 160.631 120.218C159.848 116.64 158.286 113.252 157.662 109.485C156.257 113.064 154.694 117.394 151.256 118.524C148.756 119.278 146.569 117.96 146.412 114.758C146.255 114.004 145.475 113.816 145.006 113.816C143.287 113.816 141.881 115.698 140.162 114.946C138.6 114.382 139.85 112.309 139.694 110.991C139.537 110.615 139.537 110.049 139.073 110.054C136.255 109.297 133.444 114.004 131.099 112.876C129.537 112.121 131.411 106.285 129.694 105.719C126.726 104.589 122.975 108.731 119.692 108.167C118.131 105.719 119.694 100.071 115.787 101.201C112.193 102.331 109.38 107.415 105.944 105.343C105.318 104.967 106.569 101.577 105.161 101.389C102.193 101.013 99.8488 105.531 96.8807 104.401C96.5689 104.213 96.8807 102.895 96.724 102.141C96.5672 101.953 96.4122 101.577 96.0986 101.577C93.9109 101.201 92.1917 105.343 90.786 102.707C90.0039 101.389 90.9428 99.507 91.0978 97.8108C89.2236 98.3747 87.8162 100.447 85.9419 100.447C85.0048 100.447 85.6302 98.7529 85.6284 97.8108C79.2219 102.519 72.1918 106.095 65.3168 109.673C66.4106 107.225 67.5045 104.589 68.2849 101.953C62.1919 104.025 56.0972 105.343 49.8474 106.283C51.5666 103.647 53.1291 101.011 54.5347 97.9988C49.8474 99.1289 45.1601 99.8808 40.3161 100.635C41.8785 98.1868 43.5977 95.7386 45.3169 93.2905C40.4728 92.1604 35.6287 93.1025 30.9414 91.5964C32.9724 89.9024 34.6916 87.8302 36.4108 85.7602C30.7864 85.0061 25.317 83.6881 19.8476 82.182C22.3472 80.3 25.0035 78.6038 27.348 76.5338C22.8175 74.0856 17.9734 72.5796 13.2861 70.1315C15.9424 68.2494 18.7555 66.7412 21.4118 64.8592C17.6616 62.2231 14.225 59.023 10.6298 56.1967C14.38 54.3147 17.9734 52.2425 21.7236 50.5485C17.8132 45.8445 13.5944 41.5122 10.001 36.24C20.4172 35.1099 30.8352 34.2305 41.1591 32.0978C43.7405 31.5641 46.3167 30.9547 48.9295 30.2957C64.1149 26.3069 79.6974 24.3299 94.0485 17.4111C92.2039 16.9163 90.7686 15.434 88.7185 15.434C100.201 11.4798 111.477 5.79702 123.611 5.16392C125.684 5.03643 127.76 4.98026 129.842 5.00618C131.923 5.03427 134.008 5.14447 136.097 5.35623C139.378 5.7322 141.721 9.68639 144.377 12.7006C147.541 16.1363 150.54 19.7166 153.482 23.243C161.721 33.4137 170.158 43.0183 180.627 51.1146C181.564 51.8212 182.524 52.4219 183.513 52.8756C183.844 53.0269 184.177 53.163 184.515 53.2797C187.188 53.9387 190.158 54.5027 192.583 52.5083C192.806 52.3095 192.994 52.087 193.121 51.8277C193.248 51.5684 193.309 51.2702 193.283 50.9245C193.283 50.3605 191.878 50.9245 190.939 50.7365C191.407 49.0425 193.283 47.7244 192.813 45.8402C192.813 45.4642 192.188 45.2763 191.719 45.4642C200.625 35.4837 213.75 35.8618 222.656 45.2763C220.156 46.2183 223.281 48.8545 222.968 50.5485C222.811 50.9245 222.031 50.5485 221.562 50.7365C221.093 50.9245 220.898 51.3955 220.898 51.8666C220.898 52.3376 221.093 52.8087 221.407 52.9966C223.281 54.1267 225.314 54.3147 227.305 53.8437C227.692 53.7637 228.077 53.6643 228.458 53.5433C232.274 52.3354 235.899 49.1138 239.221 46.4063C248.284 39.2521 254.845 30.4016 262.034 21.7067C264.378 18.7248 266.683 15.3368 269.201 12.584C271.72 9.83116 274.455 7.71145 277.658 7.24041C286.252 5.82727 294.768 6.53384 303.263 7.87567C306.116 8.33591 308.961 8.86314 311.823 9.42278C314.74 9.93271 317.684 10.5161 320.619 11.1147C323.681 11.4798 326.552 12.4673 329.422 12.9621C327.372 13.9496 325.116 15.1855 323.066 16.4215C324.502 17.4089 326.142 18.1501 327.781 18.8934C339.879 22.5991 351.361 27.0481 363.028 31.1838C365.334 31.8277 367.647 32.3852 369.969 32.8757C381.575 35.3324 393.379 36.0973 405.001 37.746C400.782 42.0762 397.032 46.5965 393.125 51.3026C396.719 52.8087 400.157 55.0688 403.75 56.5749C400.625 59.587 397.032 61.8471 393.907 64.8592C396.252 66.9314 399.063 67.6833 401.251 69.9435C397.189 72.0156 392.97 74.0856 388.751 75.5917C390.47 78.2278 393.127 79.3579 395.315 81.4279C390.471 82.558 385.626 84.44 380.627 85.1941C382.347 86.8881 383.752 89.3363 385.471 91.0303C381.096 91.9724 376.877 91.9724 372.503 92.7244C373.909 95.1725 375.628 97.2425 376.565 100.069C372.035 99.6928 367.659 98.9387 363.284 97.9966C364.378 100.821 365.783 103.269 366.877 106.093C361.096 105.717 355.472 104.399 349.91 103.15C350.638 105.663 351.269 107.884 351.983 110.438ZM191.433 56.6807C188.439 54.883 185.94 58.2711 184.325 60.9763C184.098 61.4128 183.884 61.8601 183.68 62.3138C181.646 66.8557 180.625 72.0437 183.752 75.4059C190.315 82.9383 199.416 92.8713 206.877 92.3527C213.125 91.9184 227.033 82.9383 231.095 71.6397C232.098 68.7831 231.665 65.7365 230.571 62.8324C230.414 62.4176 230.243 62.007 230.06 61.5986C228.906 57.8929 225.938 54.6928 223.438 56.953C222.501 57.8951 223.595 60.7192 225 62.0373C224.375 62.4132 223.126 61.8493 223.438 63.1673C223.907 64.8614 225.469 65.9914 225.617 67.867C225.638 68.2149 225.6 68.5347 225.469 68.8156C225.157 69.6626 224.297 69.3341 223.281 68.956C222.943 68.8307 222.586 68.6989 222.227 68.606C221.407 68.2494 220.782 68.4374 220.156 68.8156C219.864 69.0511 219.575 69.2823 219.291 69.5135C217.298 71.1168 214.589 72.1021 212.813 74.0251C211.06 75.9223 210.939 77.854 209.531 80.1142C208.594 81.6202 207.343 83.5044 205.938 82.1863C203.438 79.9262 203.593 75.22 200.782 73.7118C198.282 72.3938 195.938 70.6997 193.438 69.0035C191.876 67.8735 190.002 70.5096 188.751 69.0035C187.969 67.9685 188.321 66.7909 188.81 65.5442C188.974 65.1293 189.153 64.7058 189.329 64.2888C189.531 63.5433 190.313 62.7914 190.002 61.8493C189.69 61.2853 188.908 61.8493 188.439 61.6613C189.376 60.5312 190.627 59.4011 191.13 57.6488C191.24 57.3354 191.339 57.0135 191.433 56.6807ZM97.9137 15.9958C103.479 21.6116 111.476 18.6471 117.56 16.2162C119.692 15.676 121.789 15.2936 123.78 15.3411C125.773 15.3886 127.657 15.8597 129.377 17.0351C133.752 20.1423 136.642 25.1315 139.338 30.5226C140.686 33.2171 141.986 36.0088 143.398 38.6924C147.816 48.8566 157.034 53.7529 165.316 58.0852C165.473 41.5144 155.628 28.5217 146.232 17.7201C142.811 14.144 139.025 11.2681 134.689 9.50272C132.463 8.65571 130.159 8.25597 127.805 8.16089C125.452 8.06582 123.052 8.27973 120.634 8.66219C114.346 9.75121 108.4 12.221 102.413 14.3536C100.925 14.9003 99.4256 15.4513 97.9137 15.9958ZM248.202 57.9923C259.064 52.8108 270.001 44.3363 274.612 30.5442C277.503 24.8484 280.628 19.7642 285.47 17.5991C288.517 16.281 291.915 16.3761 295.496 17.0503C299.546 18.2668 303.758 19.7685 307.818 19.9543C311.878 20.1401 315.801 19.0144 319.255 14.9716C315.787 14.1159 312.385 13.3618 308.994 12.6661C305.603 11.9703 302.218 11.3307 298.809 10.7127C295.46 10.2006 292.126 9.87437 288.806 9.89814C285.491 9.92407 282.19 10.3022 278.909 11.1946C275.099 12.2534 271.886 14.6367 268.958 17.679C262.971 26.4474 253.751 33.2257 250.963 44.3882C250.402 49.0403 249.346 53.4158 248.202 57.9923ZM184.804 82.3506C184.689 82.3743 184.689 82.3743 184.534 82.3743C185.628 86.7045 186.565 90.8488 187.347 95.367C187.659 97.3765 187.943 99.3795 188.228 101.387C190.315 114.386 193.128 127.755 199.691 138.677C205.629 132.275 205.629 122.106 201.559 114.356C200.721 112.363 199.765 110.427 198.746 108.517C195.69 102.791 192.081 97.3138 189.474 91.3544C187.922 88.284 186.365 85.2892 184.804 82.3506ZM228.043 82.9642C225.52 87.4759 222.881 91.9681 220.393 96.5597C219.15 98.8566 217.942 101.177 216.807 103.537C213.126 111.184 209.533 119.468 209.533 128.319C209.533 132.085 212.032 138.675 214.22 136.981C223.44 129.637 221.564 113.256 224.271 101.026C224.851 97.9145 225.455 94.8657 226.084 91.8601C226.714 88.8544 227.368 85.892 228.043 82.9642ZM207.101 74.6907C206.659 73.2667 206.138 71.899 205.554 70.5658C205.359 70.1228 205.159 69.682 204.95 69.2456C204.532 68.2494 204.063 67.4953 203.628 66.6678C203.396 66.2443 203.159 65.8229 202.917 65.4037C202.191 64.144 201.423 62.9016 200.627 61.6591C200.315 61.0952 202.189 60.717 201.877 59.399C201.721 58.835 201.252 58.2689 200.94 58.2689C198.753 57.5148 197.19 56.1967 195.784 54.3147C195.316 53.5606 195.473 52.4327 196.096 52.4327C199.064 52.6207 201.097 55.6328 202.815 58.0809C203.126 56.0087 204.22 54.6907 205.628 53.3726C203.44 50.9245 201.566 48.4763 198.909 46.7823C197.504 45.8402 194.065 46.2183 194.691 48.6643C194.691 48.8523 195.941 48.4763 195.941 48.8523C195.825 50.1941 195.267 51.4301 194.633 52.6293C194.422 53.0291 194.206 53.4266 194.02 53.8372C193.442 55.4426 192.66 57.3268 193.128 59.0208C193.753 60.5269 195.628 59.3968 196.692 60.2438C196.936 60.4426 197.113 60.7149 197.192 61.093C198.598 68.8134 204.119 73.647 207.087 79.5459C208.103 77.0048 210.16 74.4616 211.722 72.3203C211.984 71.9638 212.241 71.6073 212.496 71.2507C214.067 69.1894 215.161 66.9292 215.901 64.3255C216.049 63.9128 216.208 63.5217 216.375 63.1522C217.035 60.905 219.066 60.3389 220.628 59.3968C221.879 58.6427 221.41 56.1967 220.935 54.6323C220.759 54.224 220.545 53.8393 220.336 53.4569C219.277 51.5489 218.324 49.6518 219.691 47.5342C215.161 43.768 211.722 50.9245 208.286 53.5606C209.848 54.0316 211.085 55.5485 211.454 57.3484C211.527 57.7093 211.567 58.0809 211.567 58.459C211.782 58.1284 212.015 57.7654 212.264 57.3895C214.009 54.749 216.488 51.3501 218.129 52.9966C219.906 54.8095 215.821 56.3329 213.516 58.0723C213.187 58.3208 212.895 58.5736 212.659 58.8329C212.503 59.0208 212.346 59.2088 212.346 59.3968C212.503 60.9029 214.377 61.469 213.597 62.5969C211.722 65.9871 209.221 68.2451 208.122 71.9595C207.958 72.3981 207.791 72.841 207.62 73.2948C207.45 73.7486 207.277 74.2175 207.101 74.6907ZM193.321 134.924C189.376 144.511 182.189 150.347 177.033 159.386C175.628 162.21 174.846 165.222 175.159 168.424C184.379 164.658 189.066 153.55 193.729 143.934C193.654 141.134 193.534 138.273 193.321 134.924ZM239.662 168.744C239.376 164.66 240.001 160.14 237.19 156.752C231.72 149.408 225.784 143.005 221.095 135.287C218.751 147.716 228.282 157.506 234.915 165.695C236.378 166.791 237.981 167.709 239.662 168.744ZM110.699 94.9219C115.313 91.4106 120.469 88.5865 125.423 85.8315C127.812 84.4227 130.106 82.9037 132.216 81.0476C134.308 79.1958 136.212 77.007 137.812 74.2758C139.063 72.2036 138.594 69.3795 136.718 68.2494C135.781 67.6855 134.687 67.6855 133.75 68.4374C127.032 74.6518 121.094 81.994 115.088 89.3125C113.623 91.1189 112.172 93.0031 110.699 94.9219ZM302.819 97.8972C302.971 97.8151 302.971 97.8151 303.126 97.8151C295.313 88.5887 288.282 78.9863 280.001 69.9478C278.595 68.6297 276.408 68.0658 275 69.5718C273.749 71.0779 273.281 73.15 274.063 75.0321C277.031 83.5044 285.157 86.1427 291.353 90.3151C295.05 92.7179 298.891 95.2633 302.819 97.8972ZM155.085 63.5023C150.939 67.8735 146.877 72.3938 144.221 78.2257C143.127 81.0541 142.19 84.6323 142.97 87.4564C143.282 88.5865 145.783 88.5865 146.72 87.8324C151.251 84.0662 154.376 78.606 157.088 73.0269C156.333 69.9651 155.685 66.7996 155.085 63.5023ZM258.172 63.4007C257.502 66.5554 255.159 69.3795 255.471 72.5818C256.253 78.7961 258.284 85.1984 262.657 89.1526C264.22 90.6587 266.564 89.9067 267.188 88.2105C269.532 82.3743 266.251 75.4059 262.643 70.8359C261.22 68.4763 259.74 66.0131 258.172 63.4007ZM150.139 98.0722C151.902 96.7844 153.438 95.2287 154.839 93.5152C156.241 91.8017 157.507 89.9305 158.728 88.0074C161.172 84.1613 163.438 80.1142 166.25 76.7239C158.749 71.4517 152.5 81.0541 149.843 88.5779C148.749 90.8467 146.875 96.3069 149.044 97.8972C149.373 97.8972 149.704 97.9966 150.139 98.0722ZM206.802 122.21C209.063 116.644 211.876 111.56 214.25 106.134C215.1 104.364 215.952 102.599 216.803 100.836C218.507 97.3095 220.209 93.7961 221.876 90.2805C215.626 96.8709 208.437 115.512 199.688 101.579C197.188 97.437 194.687 93.6708 191.407 90.6587C194.064 95.9309 196.563 101.203 199.178 106.532C200.444 109.174 201.71 111.806 202.98 114.423C204.25 117.037 205.523 119.634 206.802 122.21ZM20.8248 54.2758C32.9533 52.1021 45.0469 49.0425 56.8584 44.816C58.0393 44.3925 59.2168 43.9582 60.3926 43.5131C68.8283 40.1423 77.2345 37.4241 85.4368 33.4699C74.9805 28.5282 63.9093 35.447 53.946 39.278C51.5353 40.3908 49.1246 41.4928 46.7156 42.5904C39.4852 45.8813 32.2496 49.1224 24.9669 52.4003C23.5316 53.0528 22.1591 53.6794 20.8248 54.2758ZM252.347 75.5074C250.158 75.784 248.127 76.16 245.939 76.7261C247.658 80.8683 249.573 84.7749 251.661 88.6124C252.706 90.5312 253.795 92.4305 254.925 94.3363C256.719 96.3091 257.813 101.959 260.625 100.077C261.407 97.8626 261.553 95.7213 261.281 93.6384C260.464 87.3894 255.883 81.6699 253.372 76.1621C253.166 75.7494 252.976 75.3497 252.347 75.5074ZM168.336 77.7957C165.576 81.685 162.672 85.4188 159.892 89.2391C158.502 91.1492 157.143 93.0809 155.853 95.0688C154.691 98.3791 150.004 101.393 152.503 104.781C156.097 109.49 159.378 101.581 162.001 98.4828C163.602 96.0411 165.088 93.513 166.579 90.905C167.594 89.1915 168.589 87.4456 169.575 85.6846C169.174 83.163 168.793 80.6716 168.336 77.7957ZM332.155 34.4163C334.69 35.864 337.189 37.182 339.616 38.351C340.854 38.9625 342.099 39.561 343.347 40.1423C359.581 47.7028 376.64 52.6941 393.905 55.4469C376.093 47.3506 358.124 40.1941 340.446 31.8039C339.17 32.2879 337.867 32.7374 336.51 33.1782C335.831 33.3986 335.139 33.6168 334.423 33.8286C333.699 34.0338 332.944 34.2283 332.155 34.4163ZM243.642 78.1889C243.283 80.8683 241.564 83.3143 242.189 85.7624C242.814 87.787 243.535 90.2244 244.398 92.72C246.72 99.131 250.938 110.994 256.408 106.285C258.595 104.403 255.471 98.0009 252.907 94.1548C251.684 92.2317 250.346 90.3605 249.109 88.4223C247.871 86.4863 246.732 84.4832 245.901 82.3009C245.216 81.026 244.509 79.7706 243.642 78.1889ZM197.082 195.65C200.627 193.282 204.377 189.516 205.002 184.995C205.654 180.287 206.141 175.481 206.253 170.687C206.309 168.29 206.269 165.894 206.11 163.517C206.025 161.357 205.788 159.241 205.433 157.173C205.079 155.103 204.61 153.081 204.063 151.104C203.088 153.079 202.287 155.138 201.621 157.255C199.625 163.604 198.848 170.46 198.2 177.124C197.948 180.164 197.746 183.197 197.514 186.175C197.373 189.593 197.272 192.726 197.082 195.65ZM121.39 97.491C124.456 95.9504 127.783 95.0904 130.944 94.0057C134.104 92.9188 137.112 91.6008 139.533 89.1526C141.721 86.8925 143.127 79.9262 141.721 78.7961C138.753 76.2551 135.902 78.6557 133.097 82.2728C130.293 85.892 127.532 90.7278 124.74 93.0614C123.709 94.3557 122.698 95.7213 121.39 97.491ZM209.96 150.944C208.751 154.302 208.282 158.068 207.817 161.793C207.653 163.669 207.577 165.564 207.566 167.467C207.538 173.178 208.125 178.969 208.751 184.617C209.063 188.947 213.281 192.525 216.72 194.786C216.615 190.14 216.338 185.518 215.901 180.914C215.683 178.612 215.426 176.313 215.129 174.021C214.218 167.294 212.97 160.516 211.388 153.686C211.158 152.549 210.811 151.612 209.96 150.944ZM289.295 99.3233C286.524 95.65 283.81 91.8838 280.989 88.2818C278.167 84.6799 275.237 81.2442 272.034 78.2321C271.408 77.6682 269.689 77.8519 269.689 78.606C269.064 83.1284 268.284 89.1526 271.095 91.6008C275.157 95.367 280.64 95.5636 285.554 97.7935C286.662 98.2429 287.796 98.6967 289.295 99.3233ZM215.269 144.271C221.095 156.752 224.377 172.945 236.096 179.347C234.222 165.6 224.69 156.564 218.759 145.395C217.692 145.093 216.626 144.714 215.269 144.271ZM97.4381 89.9586C98.3509 88.9733 99.2723 88.0117 100.201 87.0632C101.185 86.0282 102.148 85.0515 103.13 84.0662C111.876 74.0878 124.378 67.6855 129.69 54.1289C130.472 52.0567 128.284 50.9288 126.722 51.3048C124.848 51.8687 123.129 52.8108 122.035 54.695C116.097 65.9936 108.128 74.09 101.523 84.064C100.805 85.1012 100.112 86.1016 99.3942 87.141C98.7375 88.0787 98.0878 89.0187 97.4381 89.9586ZM318.776 92.7589C318.189 91.8752 317.602 90.9914 317.013 90.112C316.426 89.2326 315.838 88.3553 315.249 87.4802C307.815 76.3458 300.314 65.8013 291.72 55.4448C290.314 53.9387 288.907 51.4906 286.657 52.0718C285.733 52.37 284.981 53.2495 284.805 54.6302C284.615 55.7041 284.756 56.8579 285.098 57.9858C285.78 60.246 287.266 62.4111 288.75 63.9171C296.562 71.4495 304.063 77.8519 311.385 85.5096C313.878 87.9577 316.341 90.3756 318.776 92.7589ZM177.445 179.727C189.064 172.945 193.438 157.316 198.596 144.135C196.877 144.889 195.002 145.453 194.22 147.335C190.47 155.998 184.689 162.4 180.599 170.376C179.293 173.334 178.331 176.508 177.445 179.727ZM185.969 185.942C197.657 179.159 200.939 160.14 200.156 145.829C197.812 152.42 194.687 158.634 191.876 165.036C190.157 168.991 188.751 172.945 187.64 177.314C187.089 180.352 186.683 183.329 185.969 185.942ZM174.301 80.2373C173.752 66.9335 176.72 48.1025 164.22 41.3242C165.626 51.6807 168.127 61.6613 171.407 71.2572C172.369 74.2153 173.334 77.1971 174.301 80.2373ZM237.397 80.8035C242.969 68.8156 247.345 55.6349 249.689 42.0762C241.72 45.8424 238.596 56.7628 239.324 66.3437C238.683 71.1686 238.035 75.9633 237.397 80.8035ZM227.3 185.739C227.099 183.293 226.741 180.903 226.253 178.567C223.596 166.918 217.815 156.94 213.908 145.829C212.034 155.998 215.783 165.788 218.282 175.205C219.221 178.217 222.034 180.287 224.215 182.709C225.237 183.787 226.272 184.771 227.3 185.739ZM81.8051 43.0788C78.466 44.345 75.1861 46.0736 71.9427 47.4262C70.3298 48.2192 68.729 49.0468 67.1387 49.9068C62.3713 52.4845 57.7136 55.3584 53.2388 58.6578C52.0962 59.4811 50.964 60.313 49.837 61.1557C43.0734 66.2118 36.4718 71.6418 29.8423 76.7261C37.186 72.867 45.0765 70.0407 52.5612 66.3717C53.6307 65.8467 54.6967 65.3043 55.8011 64.708C61.4115 60.9201 68.1438 58.2343 73.5957 53.7724C74.9579 52.6574 76.2416 51.4301 77.4086 50.0515C78.5757 48.6708 79.6365 47.1496 80.5596 45.4491C81.0021 44.6388 81.4393 43.8566 81.8051 43.0788ZM337.985 46.0282C343.908 52.9988 350.471 59.023 357.888 63.539C358.999 64.2002 360.126 64.8354 361.262 65.4448C369.22 69.7101 377.736 72.7698 385.94 75.7818C376.565 68.8782 366.865 62.6271 357.165 56.3112C356.194 55.6803 355.224 55.0472 354.256 54.4141C350.316 51.3026 345.94 49.6086 341.77 47.6034C340.57 47.0956 339.306 46.5684 337.985 46.0282ZM104.142 92.5753C113.439 82.9383 124.378 76.16 132.815 65.0494C133.909 63.9193 133.597 61.8493 133.127 60.1531C132.052 60.6004 131.031 61.1362 130.058 61.7456C125.158 65.0472 121.409 69.7555 117.812 74.8743C117.086 75.905 116.363 76.9422 115.639 77.9772C114.912 79.0122 114.182 80.0407 113.44 81.0541C112.582 82.1842 111.683 83.2667 110.763 84.3233C109.845 85.3799 108.905 86.4128 107.964 87.4413C106.673 89.118 105.412 90.8445 104.142 92.5753ZM344.879 100.25C342.801 96.2983 340.636 92.2987 338.325 88.4115C337.555 87.115 336.768 85.8315 335.954 84.5589C327.191 72.9577 318.597 55.8229 305.003 53.3748C313.441 65.9914 322.815 77.666 333.044 88.3337C333.913 89.1807 334.785 90.0212 335.662 90.8575C336.536 91.6937 337.412 92.5256 338.288 93.3553C340.518 95.6695 342.638 97.8756 344.879 100.25ZM310.232 94.7231C302.502 83.5044 293.908 73.8998 285.47 63.1673C284.22 61.4733 282.189 60.7192 280.158 60.9072C280.469 62.7892 279.689 64.8614 280.469 66.1794C286.407 75.972 295.157 80.4901 302.516 87.7265C305.075 90.0407 307.654 92.3786 310.232 94.7231ZM73.7316 98.5627C78.0166 93.8328 82.4739 89.2628 86.7676 84.5221C87.6664 83.5109 88.5547 82.4996 89.4674 81.4258C96.2502 71.4517 105.158 63.5433 110.939 52.8108C99.6886 56.577 91.5646 68.2516 85.0118 79.3385C84.5136 80.1703 84.0311 80.9828 83.5556 81.7931C83.0905 82.5839 82.629 83.3747 82.1709 84.1569C79.1139 89.2131 76.3183 94.0187 73.7316 98.5627ZM189.373 83.9798C195.314 90.2827 198.908 103.275 206.877 102.521C214.689 101.767 218.282 90.4707 223.908 84.0684C218.179 88.6686 213.908 94.2369 207.345 96.3069C203.126 97.437 191.979 86.0282 189.373 83.9798ZM171.411 90.1574C170.158 99.5091 172.501 108.924 173.909 118.15C175.94 113.632 176.722 105.911 182.189 106.099C180.627 100.639 176.251 97.6271 173.564 93.1284C172.822 92.1388 172.128 91.1297 171.411 90.1574ZM239.992 91.3977C235.469 94.9888 233.126 101.203 229.688 105.909C235 107.039 235.626 114.382 238.751 118.526C238.907 111.56 239.376 104.403 239.686 97.4802C239.778 95.3951 239.881 93.3812 239.992 91.3977ZM206.72 129.07C203.907 132.837 201.719 137.733 202.032 142.817C202.344 146.207 205.314 149.784 208.125 148.277C210.313 147.147 211.315 145.095 211.355 142.314C211.407 138.675 209.221 132.649 206.72 129.07ZM170.744 76.4971C169.845 63.1652 160.939 56.765 151.564 52.2447C154.064 56.953 157.345 61.0952 160.683 65.0472C163.945 68.9171 167.347 72.6552 170.744 76.4971ZM60.5406 97.6379C67.4662 91.5748 75.1634 86.0843 81.4915 78.9819C82.4147 77.9361 83.3118 76.8579 84.1931 75.7084C87.1891 71.8298 89.6887 67.1215 92.8135 63.1673C87.8127 65.0494 83.2822 68.0636 79.3804 72.2987C78.553 73.217 77.7622 74.1829 77.0115 75.1682C76.2608 76.1535 75.5484 77.1561 74.8777 78.1457C74.4249 78.8717 73.979 79.5956 73.5296 80.3108C71.7302 83.1716 69.8717 85.8985 67.4244 88.0506C64.9144 91.4711 62.6552 94.6388 60.5406 97.6379ZM241.309 76.2162C248.909 69.1937 255.941 61.0973 262.346 52.6228C257.033 55.6349 251.564 58.2711 246.793 62.2533C245.035 67.0027 243.171 71.6008 241.309 76.2162ZM309.964 38.9755C304.69 30.4037 296.409 21.1773 286.721 22.8713C285.939 30.2158 292.345 35.488 297.346 37.9362C300.628 39.6302 304.221 39.8182 307.689 39.3039C308.447 39.2132 309.201 39.103 309.964 38.9755ZM67.1039 47.3074C63.4373 46.9746 59.6871 45.8445 56.4455 48.2214C55.2175 48.7291 54.0017 49.2585 52.7964 49.8138C43.1518 54.2434 34.1255 60.1185 25.0017 65.9914C32.7669 63.7507 40.8386 62.0632 48.3773 58.8285C49.4538 58.3661 50.5198 57.8713 51.5719 57.3398C56.2522 55.071 60.3142 51.6807 64.6758 48.8113C65.47 48.2948 66.2748 47.7935 67.1039 47.3074ZM357.463 98.392C353.967 92.9253 350.422 87.5558 346.463 82.6336C345.674 81.6505 344.867 80.6781 344.029 79.6993C343.176 78.9841 342.298 78.0723 341.391 77.0589C335.472 70.3238 329.691 61.8493 321.096 60.1552C327.503 67.3095 332.19 76.348 339.06 82.9664C339.884 83.7529 340.723 84.5091 341.577 85.2438C343.284 86.7088 345.041 88.0766 346.823 89.3471C350.72 92.6163 354.157 95.5398 357.463 98.392ZM103.853 37.2058C106.001 37.5126 108.342 37.5364 110.697 37.2339C113.054 36.9336 115.416 36.294 117.609 35.2719C121.995 33.2279 125.705 29.6496 127.346 24.1894C127.657 23.0593 127.502 20.9893 126.252 20.6112C125.158 20.0472 123.907 20.4232 122.815 20.9872C120.941 21.9293 119.26 23.1522 117.583 24.4033C113.731 27.2923 109.427 29.7642 106.306 34.0792C105.459 35.1099 104.648 36.16 103.853 37.2058ZM140.026 71.4301C139.688 73.5238 140.47 76.16 142.033 75.2179C147.034 72.5818 149.845 66.5576 153.127 61.6613C149.22 59.2131 143.439 60.9072 141.862 66.0908C140.456 67.8346 139.554 69.6172 140.026 71.4301ZM390.646 65.8964C380.314 59.7771 369.845 54.1289 358.908 49.6086C356.721 48.6665 354.533 49.6086 352.345 50.3627C361.876 58.0831 372.97 62.2252 384.184 64.4595C386.433 64.9953 388.572 65.4642 390.646 65.8964ZM259.93 61.7715C262.502 67.1064 264.845 72.4845 269.221 76.1492C270.471 77.2879 271.877 75.2179 272.034 73.3359C272.506 68.2516 270.158 63.701 266.853 60.7538C264.547 61.0887 262.255 61.4171 259.93 61.7715ZM84.7401 65.2265C83.9075 64.6734 82.5018 66.1794 82.6568 64.6734C82.8136 62.6012 84.2193 61.4733 85.3131 60.1552C88.438 56.389 92.5 53.9409 94.6878 49.2348C92.0314 52.625 88.7498 55.071 85.5605 57.988C84.6007 58.8004 83.6462 59.5718 82.6899 60.3259C76.0291 65.555 69.2429 70.0688 63.4669 76.5035C62.488 77.5688 61.5195 78.6384 60.5563 79.7123C56.7016 84.0079 52.9166 88.4028 49.2186 92.921C54.1986 89.6258 58.8737 85.7429 63.5209 81.7866C64.4511 80.9958 65.3795 80.2028 66.3079 79.4098C69.4972 76.6159 72.784 74.0122 76.1458 71.5338C77.8267 70.2957 79.5267 69.0878 81.2512 67.8929C82.3868 67.0589 83.5487 66.1751 84.7401 65.2265ZM367.809 92.5148C367.971 92.5407 367.971 92.3527 368.126 92.3527C363.96 86.8601 359.413 81.8255 354.679 77.0459C353.733 76.0887 352.782 75.1444 351.814 74.1786C349.347 71.6656 346.877 69.1613 344.385 66.6829C343.552 65.8553 342.718 65.0299 341.878 64.2067C336.564 58.8372 330.939 53.7529 325.313 48.6686C329.22 55.259 337.344 58.0831 338.126 66.9335C337.344 66.9335 336.564 65.9914 335.627 66.5576C338.44 69.5697 341.565 71.8298 344.535 74.4379C345.235 75.0018 345.935 75.5614 346.635 76.1189C347.335 76.6764 348.037 77.2317 348.739 77.7849C349.619 78.4374 350.492 79.0748 351.364 79.7166C353.984 81.6418 356.585 83.6168 359.128 85.7192C362.373 88.2365 365.205 90.4556 367.809 92.5148ZM40.586 85.4945C45.876 82.2317 51.2949 79.1202 56.5518 75.6997C57.6039 75.0148 58.649 74.319 59.6923 73.6016C68.1264 67.4284 77.1979 62.236 85.1912 55.2201C86.0796 54.44 86.9557 53.6384 87.8179 52.8043C86.6265 53.1479 85.4403 53.5087 84.2576 53.8955C73.6184 57.37 63.2962 62.8346 54.9911 71.7304C54.1864 72.5688 53.3851 73.4137 52.5804 74.2477C51.7757 75.0839 50.9692 75.9115 50.1575 76.7218C48.9068 78.0398 47.6579 78.9819 46.2122 80.0018C44.2021 81.9703 42.3645 83.7637 40.586 85.4945ZM144.254 47.5299C142.519 50.2633 139.307 53.1501 137.116 56.1578C134.924 59.1656 133.752 62.3203 136.097 65.6155C138.753 69.1937 142.972 62.5774 144.358 58.5822C144.271 55.2568 144.242 51.7542 144.254 47.5299ZM338.382 56.5468C339.055 57.2814 339.725 58.0204 340.398 58.7616C341.068 59.5005 341.741 60.2417 342.416 60.9785C346.468 65.4016 350.629 69.7079 355.322 72.9491C356.278 73.606 357.248 74.2412 358.227 74.8592C364.104 78.5606 370.314 81.6202 376.252 85.0104C370.908 80.0385 365.508 74.9996 359.899 70.3713C358.964 69.5999 358.023 68.8393 357.078 68.0917C351.876 63.9214 346.876 59.7793 340.957 57.8367C340.131 57.437 339.271 57.0049 338.382 56.5468ZM269.62 48.2559C268.874 51.6224 268.618 55.7559 269.35 59.3277C270.081 62.8994 271.802 65.8899 275.028 66.9508C279.17 68.5239 278.843 61.7304 277.566 58.6103C275.026 55.354 272.487 52.0437 269.62 48.2559ZM176.502 75.9914C179.22 71.2637 181.564 66.0973 182.346 60.4794C182.971 56.0671 177.345 56.0195 175.314 52.7503C175.158 56.7218 175.626 60.8748 175.767 64.9327C176.011 68.6794 176.257 72.3419 176.502 75.9914ZM232.919 75.797C231.426 79.9975 230.24 84.3471 229.233 88.7723C228.73 90.9849 228.273 93.2192 227.845 95.4642C226.408 102.521 225.471 109.678 223.908 116.644C226.408 108.924 228.596 101.203 231.234 93.4158C231.837 91.5684 232.445 89.7187 233.051 87.8648C233.657 86.0109 234.264 84.1526 234.866 82.2857C234.208 80.1379 233.57 77.9707 232.919 75.797ZM91.2337 86.7801C100.471 75.784 110.471 65.9914 119.845 55.259C106.564 56.577 100.002 73.1479 92.5732 84.4962C92.1098 85.2762 91.6639 86.039 91.2337 86.7801ZM296.162 57.0546C305.782 68.4396 316.407 78.4201 326.564 89.1526C318.595 76.9141 312.033 60.7192 298.074 57.9686C297.439 57.6596 296.805 57.3527 296.162 57.0546ZM238.632 52.8087C236.565 55.6501 231.877 56.3177 231.877 59.9521C231.877 65.1163 234.065 70.4621 236.253 75.4448C236.878 71.9746 237.19 68.3099 237.692 64.5978C238.111 60.8791 238.432 56.9768 238.632 52.8087ZM133.223 101.931C137.346 100.639 142.19 101.203 145.47 98.1911C146.875 97.061 147.657 92.5429 146.407 90.8467C144.376 88.0225 140.782 91.0346 138.955 94.0878C137.152 96.4473 135.339 98.9236 133.223 101.931ZM276.392 104.159C273.594 100.073 271.095 95.7429 267.656 92.3527C266.563 91.4106 263.75 91.2205 263.438 92.5385C262.891 94.2347 262.696 96.7282 263.217 98.755C263.737 100.782 264.974 102.335 267.291 102.152C268.693 102.433 270.121 102.727 271.621 103.053C273.122 103.381 274.697 103.742 276.392 104.159ZM168.876 91.7563C164.377 97.625 157.502 105.345 161.251 114.006C165.158 110.806 166.095 104.967 168.476 100.533C169.934 97.6703 169.373 94.7425 168.876 91.7563ZM180.146 76.227C178.751 78.042 177.345 80.3022 177.971 82.7503C178.361 84.5697 178.786 86.3652 179.242 88.1371C179.697 89.911 180.181 91.6634 180.691 93.3985C183.128 100.637 185.628 107.981 188.596 114.948C187.345 109.863 186.096 104.779 184.983 99.4335C184.522 97.0178 184.065 94.6215 183.586 92.2252C183.107 89.8289 182.607 87.4348 182.069 85.0429C181.432 82.0632 180.791 79.131 180.146 76.227ZM242.064 92.4586C240.003 101.203 245.159 109.488 249.846 115.514C252.659 109.3 247.502 103.651 245.15 98.3034C244.126 96.3415 243.103 94.4054 242.064 92.4586ZM292.955 20.9094C298.283 25.1315 304.221 27.5796 310.487 28.0766C311.265 28.1393 312.039 28.163 312.805 28.1501C315.103 28.1069 317.325 27.7093 319.363 26.8839C316.853 24.0187 313.685 22.8757 310.396 22.2706C308.754 21.9681 307.071 21.7974 305.42 21.6116C304.594 21.5187 303.775 21.4236 302.972 21.3048C300.94 20.8035 298.752 20.6155 296.726 20.5334C295.441 20.4902 294.176 20.568 292.955 20.9094ZM120.995 19.9089C112.911 19.1397 103.684 19.6345 97.1246 26.0585C104.095 28.5304 112.296 26.0585 118.514 21.4215C119.349 20.8964 120.174 20.3821 120.995 19.9089ZM130.77 56.5446C130.772 57.0718 130.626 57.7395 130.943 57.7287C132.211 58.0139 133.771 57.4737 134.534 56.4647C137.448 53.0528 142.244 49.3666 141.43 46.0088C140.85 43.5628 139.789 42.7136 138.554 42.8735C134.689 44.3363 131.564 49.0446 131.159 53.8631C131.028 54.749 130.901 55.6371 130.77 56.5446ZM283.168 57.2987C283.189 56.3221 283.129 55.3389 282.995 54.3687C282.345 49.6086 279.689 45.0904 275.941 43.3964C275.08 43.1133 274.336 43.5822 273.594 44.2153C272.852 44.8484 272.11 45.6436 271.25 46.0131C274.537 50.3648 276.914 56.4128 282.021 58.4807C282.988 58.673 283.417 58.539 283.168 57.2987ZM29.8841 36.4128C34.2457 36.6073 38.7327 36.819 43.218 36.7088C45.4597 36.6548 47.7015 36.5187 49.9276 36.2616C56.7312 35.447 63.7021 33.7162 70.0581 30.7516C63.2927 29.2693 56.3201 31.4928 49.5931 32.6012C47.5656 33.0334 45.566 33.4655 43.5629 33.8739C41.5597 34.2823 39.5549 34.6648 37.5308 35.0191C34.9128 35.5204 32.3715 35.9807 29.8841 36.4128ZM384.808 38.243C378.499 37.2425 372.258 35.5636 365.992 34.1613C363.904 33.6924 361.814 33.2559 359.715 32.8843C355.667 31.9897 351.361 31.7413 347.031 31.7218C348.645 32.7266 350.3 33.5844 351.984 34.3147C360.406 37.9729 369.6 38.4699 378.534 38.3186C380.711 38.3467 382.785 38.297 384.808 38.243ZM296.754 45.9461C297.189 46.2205 297.658 46.4085 297.97 46.7866C297.188 38.6903 289.844 33.982 284.22 29.8398C282.814 28.7097 280.938 30.0278 279.376 30.9699C283.594 36.2421 288.125 41.5144 293.589 44.587C294.612 45.1293 295.665 45.5852 296.754 45.9461ZM277.956 33.5304C276.252 42.0783 282.971 49.4227 289.534 50.5528C289.222 43.3986 284.065 39.4422 279.928 35.4275C279.264 34.7836 278.609 34.1548 277.956 33.5304ZM115.74 44.1894C122.97 42.4543 130.627 38.1241 133.284 29.8376C133.595 28.8955 130.939 27.9556 129.69 28.5196C123.752 31.5317 118.753 36.9919 114.501 43.0593C113.972 44.4897 114.259 44.7836 115.74 44.1894ZM135.983 32.5105C131.876 37.37 124.064 41.1362 125.001 49.4206C130.939 48.4785 137.032 42.2663 135.909 34.4833C135.865 34.0252 135.943 33.5152 135.983 32.5105ZM196.769 64.3061C196.864 63.7162 196.84 63.2019 196.727 62.7589C196.614 62.316 196.408 61.9443 196.145 61.6375C195.159 60.3411 193.597 60.3411 192.346 61.0952C191.095 62.0373 190.315 63.3553 190.021 65.0623C189.968 65.4685 189.951 65.8661 189.972 66.2335C189.993 66.6008 190.054 66.9379 190.158 67.2231C190.627 68.7637 193.283 66.9054 195.028 66.9789C196.904 66.6375 196.904 66.6375 196.769 64.3061ZM217.502 65.7408C217.951 66.4193 222.503 69.0057 223.44 66.7456C224.377 64.6734 222.034 62.2274 220.158 61.6613C219.064 61.2853 217.19 61.2853 217.49 63.4309C217.477 63.7183 217.138 65.192 217.502 65.7408ZM141.611 105.86C144.085 106.119 146.772 105.587 149.143 104.678C150.246 104.125 150.179 101.037 149.385 100.27C148.755 99.6993 147.814 99.5091 147.133 100.201C145.288 101.964 143.461 103.87 141.611 105.86ZM267.602 108.971C265.47 106.854 262.501 100.263 259.844 103.275C259.376 104.029 258.594 107.042 260.349 107.649C262.729 107.984 265.146 108.44 267.602 108.971ZM240.862 117.15C244.533 114.386 243.751 108.736 241.409 105.348C241.252 107.23 241.097 109.302 241.09 111.205C241.01 113.118 240.935 115.058 240.862 117.15ZM169.61 104.918C166.251 108.169 168.282 114.196 171.407 116.456C171.096 114.384 170.782 112.502 170.425 110.399C170.122 108.498 169.852 106.683 169.61 104.918ZM260.891 114.952C258.764 109.196 257.848 108.481 254.972 110.062C256.812 111.579 258.656 113.102 260.891 114.952ZM148.981 111.707C151.122 110.121 152.933 108.82 154.87 107.465C151.197 106.045 150.73 106.374 148.981 111.707Z" fill="black"/>
</g>
<defs>
<filter id="filter0_d" x="0.000976562" y="0" width="425" height="226" filterUnits="userSpaceOnUse" color-interpolation-filters="sRGB">
<feFlood flood-opacity="0" result="BackgroundImageFix"/>
<feColorMatrix in="SourceAlpha" type="matrix" values="0 0 0 0 0 0 0 0 0 0 0 0 0 0 0 0 0 0 127 0"/>
<feOffset dx="5" dy="10"/>
<feGaussianBlur stdDeviation="7.5"/>
<feColorMatrix type="matrix" values="0 0 0 0 0.415686 0 0 0 0 0.415686 0 0 0 0 0.352941 0 0 0 0.5 0"/>
<feBlend mode="normal" in2="BackgroundImageFix" result="effect1_dropShadow"/>
<feBlend mode="normal" in="SourceGraphic" in2="effect1_dropShadow" result="shape"/>
</filter>
</defs>
</svg>
