<svg width="255" height="313" viewBox="0 0 255 313" fill="none" xmlns="http://www.w3.org/2000/svg">
<g filter="url(#filter0_d)">
<path d="M235 166.909L217.56 144.204L231.094 150.152L223.062 132.594L216.71 112.553L200.054 18.5467L200.025 18.3825L192.865 5.83197L152.105 44.8679L144.196 41.306L102.577 41.0231L94.6184 44.4952L54.4138 5L47.0774 17.4651L29.0605 111.44L22.4245 131.407L14.1438 148.874L27.7601 143.08L10 165.585L21.0518 161.829L19.8028 189.469L31.2445 180.478L32.7794 211.284L40.4064 203.292L56.4717 242.395L57.5853 236.414L83.0518 268.934L80.0437 255.928L101.948 278.655L107.32 260.991L121.437 288L136.248 260.886L141.46 278.927L163.683 256.452L160.491 269.422L186.418 237.192L187.447 243.186L204.065 204.269L211.577 212.345L213.549 181.559L224.862 190.681L224.004 163.028L235 166.909ZM226.152 145.757L210.995 139.095L211.052 139.17L203.377 135.9L208.523 119.434L226.152 145.757ZM179.999 134.033L178.693 139.243L173.374 159.063L160.308 166.15L159.867 166.61L156.251 174.191L148.85 153.518L153.595 147.037L162.137 143.502L162.68 142.998L172.425 122.887C172.636 122.493 174.795 118.35 174.761 113.519L176.701 115.244L176.513 115.275L179.999 134.033ZM69.0293 114.588L70.9927 112.885C70.8911 117.714 72.9899 121.879 73.1965 122.276L82.6549 142.497L83.1919 143.008L91.6827 146.64L96.3354 153.175L88.6419 173.763L85.1331 166.142L84.6965 165.676L71.7327 158.442L66.6947 138.562L65.4633 133.337L69.2172 114.621L69.0293 114.588ZM135.958 140.524L139.465 161.54L131.288 160.062L131.097 160.044L113.999 159.901L113.8 159.917L105.605 161.301L109.41 140.329L109.415 140.02L106.579 120.969L122.814 138.463L139.057 121.231L135.956 140.215L135.958 140.524ZM139.818 163.655L140.523 167.876L130.804 164.219L130.076 164.197L123.463 166.232L121.563 166.175L114.952 164.065L114.225 164.079L104.457 167.625L105.222 163.413L114.079 161.917L130.98 162.058L139.818 163.655ZM107.274 140.144L103.692 159.891L93.618 145.741L102.785 126.305L102.843 126.314L103.348 125.011L103.455 124.949L103.403 124.869L104.558 121.892L107.274 140.144ZM97.344 104.461L84.8342 97.9685L90.6975 88.6594L99.2233 82.7069L107.953 102.58L104.592 115.236L97.344 104.461ZM103.838 117.879L101.977 122.677L93.548 109.721L93.576 109.637L76.5933 104.568C80.4359 103.869 87.3065 103.386 95.8895 106.063L103.838 117.879ZM75.0116 117.116L86.7906 123.997L100.594 125.989L91.8624 144.503L84.4479 141.332L75.1447 121.443L75.1236 121.401C75.0991 121.355 72.991 117.298 73.1369 112.758L75.0116 117.116ZM83.3086 167.244L92.2558 186.677L79.6492 171.668L73.7299 161.898L83.3086 167.244ZM97.8214 155.262L103.169 162.773L101.014 174.647L90.2959 175.398L97.8214 155.262ZM141.397 160.151L138.095 140.366L141.07 122.144L142.183 125.134L142.129 125.214L142.235 125.277L142.723 126.587L142.781 126.579L151.671 146.116L141.397 160.151ZM137.95 102.796L146.963 83.0231L155.403 89.072L161.133 98.4466L148.531 104.797L141.133 115.488L137.95 102.796ZM147.334 155.59L154.573 175.81L143.866 174.937L141.88 163.04L147.334 155.59ZM171.326 162.499L165.27 172.199L152.455 187.061L161.675 167.734L171.326 162.499ZM170.509 121.988L170.487 122.03L160.902 141.812L153.443 144.899L144.975 126.289L158.806 124.453L170.681 117.707L172.616 113.373C172.693 117.9 170.535 121.941 170.509 121.988ZM152.267 110.076L143.639 122.959L141.848 118.142L149.963 106.416C156.89 104.345 162.639 104.333 166.265 104.696C167.409 104.811 168.417 104.969 169.276 105.137L152.239 109.992L152.267 110.076ZM166.596 102.703C164.168 102.452 160.845 102.359 156.883 102.874L163.003 99.79L177.676 96.1382L201.301 99.2065L206.523 115.384L173.453 104.171C173.131 104.045 170.672 103.123 166.596 102.703ZM177.543 94.086L163.127 97.6735L157.693 88.7847L175.559 79.6386L198.919 96.8615L177.543 94.086ZM156.317 87.1962L136.786 73.1992L144.608 60.5633L154.711 59.3453L173.922 78.1843L156.317 87.1962ZM145.207 81.7662L135.705 102.613L139.496 117.731L122.826 135.416L106.195 117.492L110.198 102.422L100.993 81.4689L111.542 74.1033L123.068 67.0204L134.768 74.283L145.207 81.7662ZM89.8057 86.7725L72.3315 77.5609L91.8087 58.9415L101.893 60.2748L109.534 72.9973L89.8057 86.7725ZM88.4073 88.3454L82.8475 97.1721L68.483 93.4204L47.0751 95.9507L70.6752 78.9975L88.4073 88.3454ZM68.3254 95.4704L82.9444 99.2886L89.0213 102.442C85.0654 101.882 81.7398 101.939 79.3083 102.161C75.2275 102.534 72.7564 103.427 72.4319 103.55L39.2077 114.386L44.6612 98.2669L68.3254 95.4704ZM72.8218 105.556L86.4439 109.622L71.7666 109.571L71.8203 109.695L71.63 109.594L43.8966 133.639L38.8423 116.638L72.8218 105.556ZM66.6305 116.668L63.2804 133.37L64.4536 138.347L47.7358 149.272L44.4826 135.871L66.6305 116.668ZM64.9765 140.457L69.7939 159.464L75.4236 168.756L48.9054 150.958L64.9765 140.457ZM78.0173 172.972L80.7091 176.177L84.5109 214.577L65.5286 193.045L63.5524 176.425L53.3948 160.727L49.9034 154.103L78.0173 172.972ZM83.144 179.074L95.6397 193.953L108.967 211.124L109.821 211.537L119.833 211.612L104.818 233.912L85.1576 199.062L85.1237 199.078L83.144 179.074ZM90.324 177.418L101.517 176.634C102.031 177.07 102.69 177.455 103.497 177.789C105.203 179.003 107.197 180.782 107.715 182.575C108.692 185.952 108.245 188.535 108.242 188.559L109.149 189.73L117.105 190.762L118.691 193.426L111.519 195.676L97.2576 192.479L90.324 177.418ZM120.464 192.286L119.449 190.579L122.235 190.122L122.248 190.136L125.207 190.656L124.174 192.34H122.338L120.464 192.286ZM133.065 195.842L125.943 193.482L127.548 190.866L135.519 189.925L136.442 188.767C136.437 188.742 136.029 186.153 137.052 182.787C137.596 181.002 139.622 179.243 141.348 178.045C142.156 177.721 142.818 177.345 143.336 176.916L154.515 177.827L147.369 192.807L133.065 195.842ZM148.968 194.302L161.673 179.567L159.409 199.544L159.373 199.525L139.217 234.163L124.285 211.645L134.537 211.723L135.4 211.32L148.968 194.302ZM164.148 176.697L166.886 173.523L195.265 154.976L191.681 161.558L181.302 177.139L179.09 193.735L159.804 215.049L164.148 176.697ZM169.54 169.335L175.298 160.111L180.385 141.158L196.306 151.841L169.54 169.335ZM180.937 139.054L182.181 134.093L179.068 117.351L200.941 136.804L197.499 150.168L180.937 139.054ZM174.17 110.223L173.979 110.32L174.034 110.197L159.312 110.082L173.036 106.172L206.856 117.638L201.56 134.582L174.17 110.223ZM221.03 133.227L221.048 133.284L222.6 136.678L209.146 116.589L204.42 101.948L214.707 113.275L221.03 133.227ZM213.978 109.373L203.075 97.3673L184.147 83.4135L200.077 90.6539L199.71 28.8398L213.978 109.373ZM197.92 87.4347L176.682 77.7817L174.157 48.0094L192.069 17.6282L197.516 19.6027L197.92 87.4347ZM196.942 17.2355L191.101 15.1189L171.974 47.5635L174.361 75.7051L156.488 58.1783L192.492 9.43605L196.942 17.2355ZM153.188 46.7038L184.532 16.6875L154.503 57.3386L145.968 58.368L153.188 46.7038ZM103.04 43.0409L143.704 43.3171L150.822 46.5241L135.032 72.0344L123.074 64.6122L111.3 71.847L95.8767 46.1669L103.04 43.0409ZM93.5106 46.3177L100.566 58.064L92.0434 56.937L62.5894 15.942L93.5106 46.3177ZM54.7371 8.6063L90.0485 57.7534L71.9276 75.0761L74.7128 46.9656L56.0386 14.2925L50.1147 16.4601L54.7371 8.6063ZM49.3653 18.8961L55.0523 16.8151L72.5241 47.3849L69.5779 77.1272L48.2004 86.5406L49.3653 18.8961ZM47.0541 28.9263L46.0059 89.7309L62.028 82.6759L42.9091 96.41L31.8375 108.29L47.0541 28.9263ZM24.4287 132.121L31.0542 112.185L41.5014 100.975L36.5661 115.561L22.8319 135.49L24.4287 132.121ZM19.1491 144.533L37.1486 118.415L42.0605 134.936L34.3424 138.118L34.4008 138.045L19.1491 144.533ZM15.952 161.419L31.7686 141.377L42.5484 136.933L45.8004 150.333L21.807 159.429L15.952 161.419ZM31.5106 177.643L22.1444 185.005L23.2264 161.064L46.5277 152.231L51.1372 160.977L31.5106 177.643ZM39.9664 200.74L34.6704 206.289L33.3024 178.835L52.2146 162.776L61.2039 176.668L39.9664 200.74ZM55.6931 234.918L41.9998 201.587L61.7326 179.221L63.4217 193.423L55.6931 234.918ZM58.0966 233.671L64.6146 198.675L78.8321 260.151L58.0966 233.671ZM100.95 274.623L79.1321 251.985L66.4788 197.276L84.993 218.276L105.913 258.301L100.95 274.623ZM120.437 281.531L86.9423 217.446L85.6303 204.193L104.655 237.917L121.159 213.402L120.437 281.531ZM110.374 209.525L100.965 197.401L108.655 202.287L109.48 202.436L121.572 199.948L122.92 199.994L135.009 202.628L135.836 202.488L143.59 197.692L134.013 209.704L110.374 209.525ZM121.477 283.521L121.451 283.47H121.505L121.477 283.521ZM122.576 281.51L123.291 213.953L139.337 238.147L158.832 204.648L157.332 217.887L122.576 281.51ZM142.514 274.905L137.697 258.232L159.267 218.747L178.078 197.958L164.652 252.516L142.514 274.905ZM164.836 260.684L179.923 199.377L185.945 234.442L164.836 260.684ZM188.33 235.718L181.19 194.141L183.081 179.956L202.495 202.545L188.33 235.718ZM209.755 207.329L204.539 201.72L183.643 177.409L192.83 163.619L211.512 179.891L209.755 207.329ZM213.32 178.723L193.928 161.833L198.665 153.14L221.839 162.238L222.581 186.189L213.32 178.723ZM199.42 151.253L202.862 137.891L213.578 142.457L229.111 162.677L223.283 160.62L199.42 151.253Z" fill="black"/>
</g>
<defs>
<filter id="filter0_d" x="0" y="0" width="255" height="313" filterUnits="userSpaceOnUse" color-interpolation-filters="sRGB">
<feFlood flood-opacity="0" result="BackgroundImageFix"/>
<feColorMatrix in="SourceAlpha" type="matrix" values="0 0 0 0 0 0 0 0 0 0 0 0 0 0 0 0 0 0 127 0"/>
<feOffset dx="5" dy="10"/>
<feGaussianBlur stdDeviation="7.5"/>
<feColorMatrix type="matrix" values="0 0 0 0 0.415686 0 0 0 0 0.415686 0 0 0 0 0.352941 0 0 0 0.5 0"/>
<feBlend mode="normal" in2="BackgroundImageFix" result="effect1_dropShadow"/>
<feBlend mode="normal" in="SourceGraphic" in2="effect1_dropShadow" result="shape"/>
</filter>
</defs>
</svg>
