<svg width="224" height="241" viewBox="0 0 224 241" fill="none" xmlns="http://www.w3.org/2000/svg">
<g filter="url(#filter0_d)">
<path d="M203.623 65.4142H130.862L110.165 54.8881L109.638 54.8054L92.3353 57.5589L91.7906 57.8787L84.6068 66.9243L84.4137 67.4787V79.7902L74.6774 82.5844C56.5293 56.739 22.6309 8.34 21.4413 6.17058C21.3039 5.81745 21.0117 5.56803 20.6478 5.49642C19.9842 5.3643 19.1635 5.75201 16.9327 8.12022C15.7592 9.36607 14.7193 10.6119 14.676 10.665L14.4779 11.1144L10.6973 39.0391L10.701 39.3009L12.2137 48.7404L12.241 48.859L19.4247 72.4571L19.4643 72.5633L30.8063 97.7358L30.8236 97.7716L42.017 119.896L36.424 142.78L36.398 142.992V176.818L36.4426 177.096L48.9185 215.246L50.4634 215.474L58.0247 204.461L58.1596 204.149L61.1183 190.68L66.5565 186.154L66.8747 185.471V153.723L96.6915 135.888L96.9973 135.58L110.519 112.645L110.61 112.434L117.817 86.8257L131.418 73.4449L203.697 67.1787L203.623 65.4142ZM124.742 64.2795L122.301 68.4566H111.517L110.75 57.1638L124.742 64.2795ZM111.685 74.4821L115.647 85.1082L102.843 82.0041C102.702 79.7482 102.199 72.8856 102.002 70.2235H110.097L111.685 74.4821ZM108.402 110.416L86.33 98.0852C87.8403 96.769 90.9265 94.0723 93.9829 91.3646C96.4836 89.1495 98.4766 87.3579 99.9077 86.0417C100.587 85.4169 101.143 84.8946 101.57 84.481L108.402 110.416ZM108.968 56.7007L109.767 68.4566H101.482L94.0882 59.069L108.968 56.7007ZM84.3815 81.6349L84.004 95.617L75.7618 84.1081L84.3815 81.6349ZM74.9955 86.0491L83.64 98.121L73.198 107.687L74.9955 86.0491ZM57.9777 120.672L50.1415 134.602L44.2651 120.672H57.9777ZM44.9311 118.904L58.6065 103.854V118.904H44.9311ZM51.1133 136.447L59.0782 122.288L64.5771 150.466L51.1133 136.447ZM72.0591 111.03L92.7215 132.7L61.2049 119.552L72.0591 111.03ZM60.3532 117.984V103.208L70.6343 109.913L60.3532 117.984ZM71.3956 108.306L60.784 101.386L73.2216 86.3158L71.3956 108.306ZM59.6278 100.03L47.2571 77.3627L72.771 84.1068L59.6278 100.03ZM46.091 75.2266L33.0741 51.3766L70.5662 81.6966L46.091 75.2266ZM43.8516 74.7797L21.6233 70.647L33.8008 56.3637L43.8516 74.7797ZM46.9081 46.0117C55.9908 58.9986 65.1317 72.0324 70.0079 78.9839L31.0972 47.5156L33.0816 26.2016C36.6431 31.3184 41.164 37.7982 46.9081 46.0117ZM29.4198 48.3354L32.1667 53.3694L15.3432 48.3527L30.0189 40.2578L29.3145 47.8242L29.4198 48.3354ZM16.1739 11.6096C17.7374 9.75007 19.3801 8.05355 20.1798 7.44853C20.93 8.62523 23.2623 12.0763 30.7505 22.8518H14.6512L16.1739 11.6096ZM12.4452 39.1478L14.2997 25.4534L29.5077 38.528L13.7389 47.2254L12.4452 39.1478ZM14.3875 49.9122L32.4131 55.287L20.3358 69.4518L14.3875 49.9122ZM32.3859 96.9851L21.3026 72.3855L44.1363 76.6305L32.4837 97.1752L32.3859 96.9851ZM45.4931 77.7875L57.917 100.552L33.8726 98.2754L45.4931 77.7875ZM33.9407 100.057L57.6446 102.301L43.1485 118.256L33.9407 100.057ZM43.1633 122.563L48.9024 136.166L38.5706 141.354L43.1633 122.563ZM38.1447 146.109L47.6471 161.7L38.1447 174.218V146.109ZM38.245 176.986L47.8823 164.29L48.76 209.138L38.245 176.986ZM47.9826 158.885L38.5161 143.354L49.0769 138.051L47.9826 158.885ZM59.7788 189.508L59.4805 190L56.4934 203.596L50.5661 212.228L49.6327 164.514L64.8098 185.321L59.7788 189.508ZM65.1317 182.787L50.0314 162.084L65.1317 154.633V182.787ZM66.2706 150.021L60.6516 121.233L74.842 127.152L66.2706 150.021ZM67.7041 151.176L75.9512 129.173L81.101 143.162L67.7041 151.176ZM82.6299 142.249L77.4763 128.252L94.2986 135.269L82.6299 142.249ZM96.0862 133.683L73.3986 109.889L84.9312 99.3237L108.561 112.524L96.0862 133.683ZM109.801 108.868L103.228 83.9167L115.955 87.0023L109.801 108.868ZM117.391 84.7835L113.207 73.0424C113.369 73.0498 118.218 72.9115 118.218 72.9115L117.656 70.2247H122.068L123.579 78.6938L117.391 84.7835ZM130.429 71.9558L130.425 71.9571L125.088 77.2084L123.714 69.5074L126.305 65.0747L130.262 67.0861L133.617 68.8418L130.429 71.9558Z" fill="black"/>
</g>
<defs>
<filter id="filter0_d" x="0.697266" y="0.473633" width="223" height="240" filterUnits="userSpaceOnUse" color-interpolation-filters="sRGB">
<feFlood flood-opacity="0" result="BackgroundImageFix"/>
<feColorMatrix in="SourceAlpha" type="matrix" values="0 0 0 0 0 0 0 0 0 0 0 0 0 0 0 0 0 0 127 0"/>
<feOffset dx="5" dy="10"/>
<feGaussianBlur stdDeviation="7.5"/>
<feColorMatrix type="matrix" values="0 0 0 0 0.415686 0 0 0 0 0.415686 0 0 0 0 0.352941 0 0 0 0.5 0"/>
<feBlend mode="normal" in2="BackgroundImageFix" result="effect1_dropShadow"/>
<feBlend mode="normal" in="SourceGraphic" in2="effect1_dropShadow" result="shape"/>
</filter>
</defs>
</svg>
