<svg width="131" height="187" viewBox="0 0 131 187" fill="none" xmlns="http://www.w3.org/2000/svg">
<path d="M0.757324 0.275879V186.181H130.956V0.275879C130.956 0.275879 102.347 0.275879 71.9523 0.275879C69.9257 0.275879 67.8916 0.275879 65.8575 0.275879C50.9159 0.275879 36.0417 0.275879 21.102 0.275879C18.0508 0.275879 15.2528 0.275879 12.7734 0.275879C5.33449 0.275879 0.757324 0.275879 0.757324 0.275879ZM99.4116 6.40418C99.4519 6.63278 99.4931 6.82391 99.4697 7.00661C97.2613 23.6217 95.0509 40.2358 92.8303 56.849C92.5135 59.2222 92.1957 61.5954 91.878 63.9686C90.9181 69.8992 90.8197 75.961 89.4342 81.7876C85.7738 76.6299 83.4979 70.6019 81.7928 64.5232C81.2219 62.5482 80.6614 60.5723 80.0015 58.6132C79.9687 58.513 79.7044 58.6797 79.5394 58.647C79.5066 59.1491 79.4072 59.6513 79.5066 60.1535C79.9518 62.3637 80.4796 64.4651 81.0785 66.531C82.8042 72.6453 85.113 78.4719 88.0479 84.1992C89.1033 86.2088 88.1135 88.4855 87.4545 90.4277C87.3551 90.6957 86.6296 90.6619 86.2341 90.4942C83.4145 89.2051 80.5124 88.9034 77.5812 89.0336C74.2629 89.1882 71.0637 89.9583 67.6995 90.3603C66.5456 90.4942 65.3907 90.26 64.2696 90.1598C62.2909 90.0258 60.2465 89.6238 59.1244 87.8156C55.7602 82.5577 55.2325 76.3957 55.5737 70.4641C55.7771 67.8474 56.288 65.2437 57.0791 62.7319C57.574 61.2918 58.5958 59.9183 60.1462 59.5501C65.357 58.4118 68.5562 54.6604 71.7217 50.6758C72.975 49.1018 75.0859 48.9678 76.9326 48.5321C74.591 47.1586 71.7217 47.2926 69.2152 48.0299C70.5013 46.8916 72.2495 46.4897 73.9105 46.188C76.238 45.7523 78.4492 46.0203 80.7064 45.564C81.7347 45.3541 82.7911 44.4959 83.4838 43.6396C86.5396 39.8667 87.7741 35.3011 88.9571 30.7347C88.7781 30.6316 88.599 30.5285 88.42 30.4255C88.0141 30.9661 87.5342 31.4655 87.2136 32.0548C85.5535 35.1025 83.9694 38.1934 82.2671 41.2158C81.9484 41.7817 81.2623 42.3748 80.6567 42.4872C78.8438 42.8048 76.9963 43.0728 75.1403 43.039C75.1066 43.039 74.9397 42.5706 74.9734 42.5706C77.4594 41.1971 80.1309 40.2265 82.0515 38.0875C83.4276 36.6306 84.483 34.858 85.1767 32.6966C86.5556 28.4037 88.2672 24.2222 89.782 19.9734C90.1082 19.058 90.2188 18.064 90.4288 17.1064C90.2563 17.0249 90.0838 16.9434 89.9113 16.8629C89.3461 17.9019 88.6937 18.9034 88.2297 19.9874C86.3259 24.4396 84.5496 28.9499 82.5699 33.3664C81.954 34.7399 80.8433 35.8848 79.8121 37.0194C81.0926 34.7699 82.1256 32.4745 82.9401 30.1388C85.3829 23.1298 85.8497 15.7451 85.0605 8.0625C84.7052 8.91977 84.3471 9.77704 83.9956 10.6362C83.5176 11.8026 83.1951 13.074 82.5155 14.1027C82.0581 14.797 81.1001 15.1502 80.3652 15.6561C79.949 14.9694 79.3988 14.3295 79.1429 13.5856C78.5373 11.8242 78.0724 10.0131 77.5503 8.22271C77.2766 8.24988 77.0038 8.27611 76.7301 8.30328C76.387 10.5097 76.043 12.7161 75.6568 15.198C74.3023 12.2655 73.0265 9.50346 71.5952 6.40418H99.4116ZM96.367 119.785C96.756 120.603 97.0194 121.674 96.5245 122.412C94.0836 125.928 96.0961 129.277 98.1405 132.258C99.2288 133.865 99.7237 135.606 100.416 137.314C98.9326 137.248 97.3822 136.879 96.4589 135.54C93.8202 131.722 91.4458 128.44 89.1708 124.488C88.3459 123.082 88.0826 121.474 88.2147 119.866C88.6768 114.709 93.4912 111.996 96.6576 108.58C97.6137 111.226 98.4386 114.542 96.427 116.913C95.6649 117.894 95.844 118.712 96.367 119.785ZM97.5781 106.116C97.415 106.538 96.9866 106.772 96.6238 106.94C92.7656 108.714 90.0276 111.963 87.9176 115.68C87.5876 116.283 87.2249 116.852 86.6643 117.22C86.5321 117.321 86.071 117.187 86.071 117.12C85.8404 111.762 85.1805 106.002 88.2803 101.18C89.1052 99.8399 90.919 99.0697 92.1385 99.5391C94.3479 100.343 96.1289 102.185 97.953 103.841C98.2389 104.102 97.863 105.398 97.5781 106.116ZM85.8319 99.4951C84.9452 97.1556 83.3226 95.383 81.3654 94.0198C79.4081 92.6566 77.1144 91.7028 74.8769 91.0067C76.4292 90.5064 78.0733 90.2731 79.7325 90.2844C84.7071 90.32 89.8214 92.5545 92.7647 96.5204C90.575 97.4704 88.3516 98.4261 85.8319 99.4951ZM69.7354 100.466C73.8683 98.4326 79.0791 99.2702 82.1462 102.954C84.0922 105.298 82.4096 108.145 82.1134 110.69C80.7945 108.279 78.9141 106.27 76.7582 104.597C74.6435 102.96 72.2616 101.656 69.7354 100.466ZM80.7711 115.697C78.5842 117.723 76.1114 119.364 73.11 120C70.9334 120.436 68.2619 121.172 66.6787 119.196C66.2166 118.627 66.0188 117.957 66.1181 117.254C66.7443 113.302 67.5692 109.586 69.053 105.934C69.2508 105.499 69.6136 105.097 70.0757 105.03C75.6165 104.226 79.4419 109.284 81.641 113.705C81.8528 114.118 81.2716 115.215 80.7711 115.697ZM73.2674 96.5495C71.329 96.6244 69.6801 95.3849 68.4597 93.8783C67.8663 93.1747 66.8437 93.1747 66.0525 92.7728C70.67 91.2325 75.3531 93.1073 79.2769 95.9208C79.4091 96.021 79.2113 96.3227 79.216 96.5185C77.2241 96.5204 75.2368 96.6122 73.2674 96.5495ZM66.03 123.267C71.8239 122.109 77.3637 119.865 82.5418 117.019C82.7067 120.937 78.5514 122.679 75.6493 124.153C76.7704 124.353 77.9252 124.421 79.0791 124.588C77.7931 126.798 75.8471 128.607 73.4071 129.41C70.2407 130.449 65.5248 130.415 63.9153 126.943C64.3643 125.614 65.1733 123.443 66.03 123.267ZM77.015 131.546C77.5831 131.319 78.422 130.838 78.4895 130.971C79.7812 132.647 80.7683 134.393 81.73 136.172C82.6908 137.951 83.6301 139.76 84.8177 141.568C87.6542 145.888 86.8621 151.012 84.6527 155.131C84.0266 151.565 82.8717 148.132 81.3654 144.853C80.6127 143.213 79.7709 141.612 78.8598 140.052C77.9487 138.494 76.9579 136.985 75.9127 135.532C74.2348 133.471 74.4035 132.559 77.015 131.546ZM77.1294 98.1347C80.7111 96.9907 82.3149 97.4911 83.855 99.9898C81.5397 99.3517 79.3341 98.7409 77.1294 98.1347ZM52.1232 120.422C47.682 113.972 50.9806 105.132 56.092 100.142C59.1919 106.069 59.8518 112.767 61.0057 119.498C61.1379 120.202 61.0057 120.872 60.643 121.508C59.6203 123.115 57.6415 124.856 58.7635 126.832C59.7525 125.694 60.314 124.32 61.6 123.416C61.7322 123.316 61.9628 123.382 61.9628 123.55C61.765 125.024 61.5344 126.396 60.6767 127.67C57.6096 132.124 55.598 136.444 54.2782 141.568C53.9483 142.908 53.025 144.046 51.8711 144.782C51.7717 140.128 53.1243 135.807 53.982 131.118C54.312 129.377 54.4441 127.702 54.2201 126.003C53.9895 124.05 53.3296 122.185 52.1232 120.422ZM45.3161 147.511C45.2748 148.5 45.1426 149.471 45.0761 150.475C43.4273 149.169 41.7784 147.495 41.5469 145.284C40.9535 139.692 40.5908 134.132 41.6463 128.64C42.8995 130.014 44.7461 130.951 45.406 132.793C46.5599 136.209 45.9666 139.859 45.2654 143.28C44.9758 144.624 45.317 146.096 45.3161 147.511ZM41.635 115.828C45.8354 118.995 47.7485 124.521 47.3858 129.711C45.407 128.137 43.7253 126.061 42.8864 123.604C42.0325 121.255 41.7138 118.634 41.635 115.828ZM42.1562 59.9961C41.515 59.7188 40.6901 59.2166 40.8551 58.4465C41.844 54.696 46.1316 53.39 49.5614 53.5567C52.7934 53.6907 56.1577 55.8344 56.8166 59.2166C54.6982 60.8983 49.7133 62.2222 49.8913 62.9342C50.0891 63.7269 51.4924 63.4149 52.4635 64.274C53.4862 65.1781 54.3429 64.5082 54.5416 64.9439C55.135 66.4176 55.2672 68.3936 54.7769 70.0931C54.2857 71.7936 53.1656 73.2233 51.2646 73.5962C51.5364 72.4841 52.6613 71.4085 51.9695 70.303C50.6506 68.1594 47.2208 67.7246 45.7032 69.9348C44.7471 71.3083 46.4925 72.382 47.0455 73.5278C44.8389 73.5587 42.8667 72.1112 41.845 70.1353C41.3501 69.1974 41.0201 68.1931 41.0201 67.1213C41.0201 66.3174 40.9873 64.8109 41.9106 64.7771C43.1311 64.7434 43.1873 64.6422 44.269 63.8899C45.1595 63.2706 47.2977 63.6528 47.1421 62.6719C47.0324 61.9786 43.6297 60.7306 42.1562 59.9961ZM52.1588 80.2492C52.6772 78.2002 53.0681 76.629 53.534 74.7346C54.6626 77.2174 54.2829 78.8869 52.1588 80.2492ZM51.4783 85.256C51.2505 85.2785 51.0218 85.301 50.794 85.3225C50.4519 82.9952 50.0845 80.6745 49.6889 78.3613C49.9213 78.3201 50.1529 78.2789 50.3853 78.2376C52.1495 80.4656 51.9676 82.8463 51.4783 85.256ZM48.6634 85.5155C47.023 90.1607 45.7041 94.9492 43.4282 99.3705C41.1523 92.1704 43.5932 84.602 46.1981 77.8366C47.0558 80.0468 47.9791 82.2242 48.7525 84.5121C48.8556 84.8054 48.7637 85.2063 48.6634 85.5155ZM41.9537 73.689C42.5377 79.5446 41.845 85.2373 40.5261 91.1651C40.4605 91.3993 40.0977 91.701 39.9656 91.4667C38.7123 88.9549 38.7779 86.1751 39.2072 83.3962C39.735 80.014 40.8233 76.9325 41.1588 73.599C41.4232 73.629 41.6884 73.659 41.9537 73.689ZM40.8964 93.3733C40.9217 97.4948 42.2734 101.245 43.2304 105.331C43.6925 107.475 43.3298 109.551 42.4721 111.459C41.7466 113.033 40.8561 114.507 40.1962 116.114C37.8546 110.656 38.6795 104.56 39.3638 98.8186C39.7172 96.6731 40.2187 94.7562 40.8964 93.3733ZM47.353 120.332C47.2958 119.155 47.3595 117.951 46.7127 116.903C45.7529 115.201 44.5793 113.584 44.9008 111.517C45.347 108.689 47.5114 106.691 49.9223 105.597C49.2015 108.798 49.0993 112.046 48.7403 115.242C48.565 116.951 47.6248 120.335 47.353 120.332ZM47.8245 104.519C47.682 104.494 47.4842 104.428 47.4842 104.294C47.352 100.308 47.7813 96.3237 49.0009 92.472C49.6936 90.3621 50.8475 88.6204 52.1335 86.712C52.8263 85.7404 53.0568 84.6358 53.5846 83.6305C57.4428 89.8927 55.3656 98.3661 50.5831 103.523C50.9131 101.513 52.1663 99.2365 51.7352 97.3599C50.4781 99.763 49.1752 102.151 47.8245 104.519ZM57.6762 87.6601C59.6372 89.7072 61.2448 91.3852 62.8505 93.0623C60.3289 94.3252 58.6642 92.6932 57.6762 87.6601ZM65.552 105.066C62.9189 102.184 58.2358 99.5382 59.3241 94.9164C61.6984 94.582 64.6333 94.6485 66.1941 96.7603C67.2345 98.4148 67.0152 101.149 65.552 105.066ZM61.9478 118.821C61.3029 114.072 60.6767 109.317 59.8846 104.562C62.2262 105.399 63.6444 107.81 64.0072 110.18C64.4843 112.86 63.9031 116.05 61.9478 118.821ZM19.6715 7.0038C19.65 6.80611 19.7156 6.47163 19.7822 6.47163C33.9964 6.27114 48.2107 6.40511 62.4343 6.40511C67.2467 6.40511 70.416 6.40511 70.416 6.40511C70.8265 6.73865 71.1049 7.28768 71.3374 8.159C72.781 13.4713 74.4954 18.6626 76.2436 23.9871C77.2991 27.0676 76.5735 30.3496 76.2108 33.4976C74.1664 28.5076 72.1876 23.5177 70.2088 18.494C69.4177 19.9003 69.2855 21.642 69.7804 23.1823C71.1659 27.6026 74.1336 31.5545 73.7708 36.3439C73.408 41.0997 68.4616 43.0756 65.1301 45.5865C65.7563 41.1324 66.779 36.7786 67.2411 32.2581C67.2411 32.1241 66.9111 32.0239 66.8127 32.1241C66.1528 32.6937 65.8238 33.5304 65.4938 34.3343C62.8223 40.53 61.8334 49.0699 54.611 51.4468C56.9854 42.7064 60.5802 34.3671 64.2743 26.1288C62.1306 28.1713 60.4161 30.6166 58.8001 33.0947C57.9096 28.9752 56.9535 24.5211 53.8199 21.5071C53.9192 22.5789 54.1826 23.617 54.3476 24.7216C55.2053 29.8793 57.3153 34.5338 56.227 39.9257C55.4021 44.0116 53.9848 47.628 52.2366 51.2117C49.5651 52.0821 46.0697 52.3837 43.8266 50.3076C40.4624 47.2261 39.6384 42.639 38.9129 38.2515C38.1218 33.5632 39.3413 29.0417 41.3201 24.8556C41.7484 23.9515 41.7156 22.9471 41.5835 22.0093C39.1763 24.4874 37.7909 27.8031 37.0653 31.1853C35.7793 29.0089 34.6244 26.765 33.4049 24.5548C35.1859 32.1906 36.9004 39.8264 39.0113 47.3947C32.3823 44.1802 33.8661 36.0422 33.075 29.8128C32.9756 28.9752 32.7122 28.205 32.3166 27.4686C30.7006 33.1622 31.5583 39.1228 32.086 44.8829C29.7445 42.8067 26.414 41.3329 25.6548 38.1184C24.5009 33.1959 28.0291 28.8759 29.3152 24.1866C29.6779 22.8469 30.0735 21.5745 30.0735 20.201C30.0735 19.9331 29.6779 19.4974 29.5458 19.7326C27.5342 22.9808 26.6437 26.4643 25.2254 29.8802C24.8627 30.7178 24.4006 31.4542 24.1044 32.2918C23.9394 32.6937 23.6422 33.0619 23.7744 33.4976C21.73 27.6035 23.2139 20.7051 27.5342 16.0833C27.7976 15.7817 27.9626 15.4809 28.1603 15.1455C28.9852 13.5715 29.4464 11.9975 30.5347 10.5237C30.8975 9.98784 30.9631 8.68179 30.5019 8.98348C29.018 9.88759 28.3909 11.797 27.0064 13.0019C26.9736 13.0356 26.5115 12.7002 26.5115 12.6674C27.2042 10.6577 28.2925 8.8495 29.2158 6.97381C27.6326 7.60997 26.3137 8.64806 25.0933 9.85386C23.4444 11.4944 22.1912 13.3363 20.1796 14.6096C20.0474 14.7098 19.8168 14.5093 19.619 14.4662C19.635 11.9788 19.6115 9.49034 19.6715 7.0038ZM30.0379 53.8753C30.0304 57.4327 28.66 58.4408 28.5653 61.0445C28.3506 61.0895 28.1369 61.1344 27.9223 61.1803C27.0177 59.6551 25.7916 57.2369 24.7399 55.2657C23.6882 53.2944 22.8014 51.7691 22.5521 52.0296C22.3796 52.2104 24.17 56.6373 25.5423 58.5027C26.7974 60.2088 27.4498 61.9336 27.6317 63.7165C27.8173 65.5004 27.5276 67.3424 26.8893 69.278C26.3615 70.8764 26.2069 72.6256 25.7794 74.758C24.0781 73.1334 21.8116 69.8018 21.3185 70.4501C20.7767 71.1612 23.5504 73.0069 24.5177 74.4151C25.0286 75.1693 25.5198 76.0387 25.367 77.014C24.7568 80.1742 24.2384 83.2454 23.5944 86.2472C22.9476 89.2491 22.1884 92.1882 21.1001 95.0851C20.9689 94.7834 20.8367 94.5145 20.8039 94.2138C20.3418 91.6185 19.9715 89.0898 19.5891 86.5855C19.2066 84.0811 18.8129 81.6002 18.3067 79.1005C17.854 76.717 17.3619 74.3429 16.8369 71.9754C16.3139 69.6087 15.7571 67.2477 15.1722 64.8924C14.7804 63.3156 14.8797 63.2575 16.1489 63.6556C14.9669 62.3327 14.307 60.725 13.977 58.9168C13.4165 55.9693 12.9216 53.2907 12.4266 50.3432C11.7667 46.425 10.8762 42.7748 10.58 38.9232C14.2732 40.7314 18.0002 42.5069 21.6944 44.3816C20.4083 44.7836 19.0894 44.9841 17.9018 45.6212C17.8362 45.6549 17.9018 46.1908 17.9346 46.2236C20.8367 46.5918 23.6066 46.1899 26.5424 46.692C28.9496 47.1277 30.8956 48.3663 33.0065 49.5056C33.0722 49.5393 32.9072 49.974 32.8744 49.974C30.5328 49.6723 28.1257 48.2323 25.7972 49.2957C28.7434 50.2036 30.0379 53.8753 30.0379 53.8753ZM6.7921 6.40418C6.7921 6.40418 9.53671 6.40418 12.2813 6.40418C15.0259 6.40418 17.7706 6.40418 17.7706 6.40418C15.2622 15.3797 16.0214 24.7563 18.4614 33.8986C18.4614 33.9651 17.9993 34.2003 17.9665 34.1328C17.2738 33.4629 16.6138 32.7265 16.3833 31.7887C15.2622 26.9664 14.9978 22.3784 14.5038 17.589C14.471 17.2873 14.4045 16.9865 14.2732 16.6848C11.7995 24.1866 13.3827 32.8933 18.7585 38.6871C17.1097 39.3233 15.2631 38.8211 13.9189 37.7324C11.2268 35.6263 9.59014 32.7696 9.00148 29.4164C8.62559 27.2756 8.84306 25.0345 8.61153 22.859C8.49436 21.7526 7.94694 20.6967 7.64323 19.6042C7.39952 18.7254 7.18673 17.8325 7.03675 16.9322C6.95614 16.445 6.87365 15.9587 6.79116 15.4725V6.40418H6.7921ZM6.7921 41.7227C7.63198 45.4638 8.50467 49.2011 7.85601 53.1136C7.7529 53.7357 7.82789 54.415 7.946 55.0436C8.6031 58.5561 9.31175 62.0582 9.96416 65.5716C10.0513 66.0429 9.91635 66.5572 9.8498 67.5841C9.23769 66.7896 8.90493 66.4411 8.6659 66.0354C7.94694 64.8155 7.30859 63.5844 6.79304 62.3168V41.7227H6.7921ZM6.7921 68.7224C9.09053 72.5844 11.5539 76.3919 12.3338 80.9575C12.6263 82.673 12.9047 84.3912 13.1718 86.1114C13.439 87.8316 13.6968 89.5536 13.948 91.2766C14.306 95.888 16.0214 100.543 15.2631 105.164C14.9331 104.83 14.6369 104.494 14.3417 104.149C13.079 102.336 11.8351 100.513 10.5856 98.694C9.33518 96.8755 8.07911 95.0626 6.79304 93.2712V68.7224H6.7921ZM20.8948 180.053H6.7921V96.9598C6.79866 96.9692 6.80522 96.9795 6.81085 96.9889C8.40062 99.6216 10.0495 102.225 11.6486 104.854C13.2478 107.483 14.8019 110.139 16.2089 112.879C18.8907 122.51 19.1879 132.658 21.2266 142.454C21.6316 144.734 22.1462 146.993 22.6917 149.248C23.2364 151.502 23.811 153.75 24.334 156.009C24.4315 156.431 24.4652 156.867 24.1194 157.481C23.4613 156.307 22.8033 155.133 22.1443 153.958C22.0731 153.992 21.9568 153.985 21.9306 154.06C20.9426 156.897 24.7727 159.381 25.7672 162.197C26.8208 165.181 27.3561 168.353 28.1144 171.444C28.7968 174.227 29.4755 177.013 30.2179 180.052H21.6072L20.8948 180.053ZM34.5588 163.415C34.0376 161.337 33.5137 159.258 32.9906 157.183C30.665 148.131 28.2578 139.223 27.103 129.779C26.1131 121.674 24.8608 114.005 23.7725 105.901C22.9148 99.3705 25.2892 93.1747 26.085 86.7766C26.3822 85.0162 26.6681 83.2566 26.9465 81.4962C27.2249 79.7358 27.4967 77.9744 27.761 76.213C28.8512 69.1965 29.6095 62.1304 30.7972 55.1317C32.8416 56.8059 35.1175 57.978 37.2284 59.7197C39.2072 61.3602 39.8671 63.9395 39.8671 66.4176C39.8343 69.2312 39.6694 72.0353 39.4256 74.8498C39.0104 79.9812 38.1199 84.9712 37.625 90.1288C37.46 91.9708 38.2183 93.8793 37.0644 95.621C36.1739 96.9608 35.1184 98.0326 34.9206 99.6066C33.898 108.515 36.8001 116.719 38.7789 125.494C39.9328 130.584 40.2955 135.474 39.8671 140.531C39.8343 140.966 39.8671 141.368 39.8999 141.803C40.0977 143.611 40.4933 145.387 40.4277 147.195C40.1971 151.582 40.2955 155.935 40.1971 160.289C40.1643 161.427 40.0977 162.567 39.9843 163.7C39.8231 165.516 39.5522 167.321 39.1969 169.127C38.8417 170.932 38.403 172.738 37.9062 174.553C36.7785 170.842 35.5009 167.172 34.5588 163.415ZM40.3574 179.544C40.3405 179.722 40.2102 179.89 40.0387 180.053H38.942C39.3703 176.236 39.7987 172.419 40.2271 168.601C40.4849 168.616 40.7436 168.631 41.0014 168.646C42.6164 172.299 40.6967 175.918 40.3574 179.544ZM40.7351 154.094C40.4502 152.218 41.8281 150.16 42.9755 150.366C44.7939 150.694 44.8708 152.297 45.1333 153.579C45.2195 155.589 44.3384 156.717 42.6146 156.338C41.8459 156.17 40.8626 154.937 40.7351 154.094ZM50.5925 180.053H43.7928C40.7239 180.046 43.3776 171.834 43.9034 168.543C44.285 166.155 44.704 163.771 45.0817 161.401C46.0997 156.136 46.1981 150.777 46.2309 145.452C46.2309 144.582 46.3303 143.678 46.6265 142.84C47.682 139.558 48.7046 136.31 49.0009 132.86C49.2314 133.496 49.6936 134.032 49.792 134.702C50.4182 139.122 51.2758 143.342 50.8147 147.73C50.3197 152.251 49.298 156.672 49.9438 161.192C50.0788 163.06 50.2372 164.945 50.3113 166.83C50.4706 170.884 50.5353 174.941 50.719 178.992C50.7406 179.44 50.6994 179.789 50.5925 180.053ZM51.9929 180.053C51.8795 179.761 51.827 179.371 51.8186 178.884C51.7567 174.952 51.4568 171.023 51.4614 167.094C51.4643 164.871 51.8748 162.653 52.0857 160.446C52.2816 160.456 52.4785 160.465 52.6744 160.475C52.9144 163.721 53.1356 166.984 53.3568 170.25C53.578 173.516 53.7983 176.783 54.0195 180.054H51.9929V180.053ZM52.9753 157.89C52.5629 158.211 51.8373 158.479 51.7389 158.379C50.4856 157.005 50.6178 154.594 51.6733 152.953C52.0361 152.417 52.696 152.417 53.2237 152.149C53.4871 152.819 53.7186 153.489 54.1358 154.082C55.3693 155.884 54.3523 156.941 52.9753 157.89ZM71.7264 180.053H55.1791C54.9297 179.653 54.8453 179.081 54.8585 178.348C54.9063 175.703 54.8416 173.057 54.8463 170.411C54.8491 168.365 54.7563 166.307 54.9306 164.274C55.6309 154.059 56.1914 143.71 59.6868 134.032C61.765 133.195 63.9744 134.032 65.9532 134.668C69.7129 135.908 72.7144 138.654 75.4 141.541C77.5043 143.853 79.3266 146.44 81.1245 149.236C81.52 149.906 81.4872 150.71 81.3541 151.49C80.787 154.606 80.219 157.738 79.395 160.789C78.6386 163.589 77.6065 166.324 76.5332 169.021C75.0897 172.651 73.5224 176.233 71.9148 179.793C71.8736 179.882 71.808 179.97 71.7264 180.053ZM78.9563 165.241C79.5497 163.563 79.9284 161.805 80.5639 160.147C80.9895 159.035 81.6981 158.036 82.2802 156.986C82.5493 157.074 82.8192 157.163 83.0882 157.252C83.1407 157.908 83.4426 158.679 83.2082 159.205C81.0907 163.958 78.8823 168.669 76.6842 173.384C76.6232 173.515 76.3804 173.56 75.7309 173.911C76.9176 170.738 77.9796 168.005 78.9563 165.241ZM101.928 147.973C101.592 150.392 101.252 152.812 100.907 155.229C99.8737 162.482 98.806 169.732 97.7224 176.978C97.4797 178.603 97.3297 179.529 96.9397 180.053H86.7159C82.8061 180.053 76.0092 180.053 76.0092 180.053C76.2183 179.392 76.3514 178.926 76.552 178.492C79.3313 172.487 82.1246 166.488 84.7277 160.402C85.5966 158.374 86.4459 156.336 87.2755 154.286C87.9176 152.586 88.8081 151.012 89.6986 149.404C90.3585 148.165 90.2263 146.724 89.5008 145.52C88.0001 143.025 86.6146 140.589 85.4729 138.052C84.3312 135.514 83.4323 132.877 82.9045 129.981C82.7724 129.143 82.8052 128.105 83.4979 127.671C86.1366 126.097 88.9393 128.575 90.5881 130.718C94.4135 135.708 97.6784 140.598 101.237 145.514C101.703 146.165 102.037 147.192 101.928 147.973ZM104.574 142.574C104.329 141.789 104.019 141.028 103.739 140.257C103.903 140.146 104.067 140.036 104.232 139.924C104.809 140.548 105.389 141.174 105.976 141.799C106.923 142.808 107.899 143.793 108.81 144.837C109.176 145.256 109.601 145.789 109.645 146.303C109.761 147.673 109.684 149.059 109.684 150.568C105.982 149.929 104.403 147.739 104.972 144.429C105.07 143.85 104.762 143.179 104.574 142.574ZM110.827 154.609C110.701 156.905 110.582 159.08 110.463 161.256C110.166 161.276 109.797 161.518 109.573 161.319C108.307 160.193 107.613 156.769 107.901 155.399C108.097 154.472 109.544 154.956 110.827 154.609ZM106.034 180.053C105.79 179.741 105.589 179.323 105.578 179.028C105.511 177.241 105.595 175.44 105.743 173.655C106.129 168.963 106.579 164.276 107.199 159.554C110.695 165.884 110.899 173.063 112.635 180.053H106.034ZM124.92 180.053H117.211C116.729 179.615 116.524 178.799 116.204 177.237C115.122 171.966 114.282 166.645 113.332 161.346C112.489 156.638 112.118 151.773 110.673 147.263C109.59 143.881 109.574 140.72 110.169 137.68C110.763 134.639 111.968 131.72 113.325 128.818C114.132 127.094 114.961 125.378 115.804 123.67C118.333 118.546 120.991 113.484 123.569 108.384C123.882 107.766 124.278 107.191 124.635 106.596C124.731 106.633 124.826 106.67 124.921 106.707V180.053H124.92ZM124.92 101.642C124.608 103.025 124.042 104.334 123.212 105.672C121.646 108.2 120.177 110.789 118.736 113.397C117.296 116.004 115.882 118.63 114.427 121.228C114.169 121.707 113.74 121.975 113.245 122.143C114.07 116.919 115.191 111.795 116.365 106.634C117.018 103.649 117.645 100.66 118.165 97.6503C118.947 93.1129 120.904 89.4711 124.92 86.31V101.642ZM124.92 82.034C124.759 82.3975 124.504 82.7451 124.237 82.9699C123.791 83.3475 122.963 83.6754 122.504 83.4956C122.11 83.3419 121.759 82.4162 121.807 81.87C122.044 79.153 122.365 76.4407 122.758 73.7424C123.312 69.9413 123.956 66.1544 124.562 62.3608C124.681 62.3627 124.801 62.3637 124.92 62.3655V82.034ZM124.92 33.9258C124.421 38.5738 123.409 43.1618 122.198 47.7751C119.319 58.7406 116.913 69.8345 114.41 80.9022C113.91 83.1161 113.406 85.3281 112.893 87.5383C112.322 89.8927 111.893 92.2706 111.069 94.5482C111.036 94.6485 110.475 94.6822 110.443 94.582C109.124 88.8556 108.266 83.3634 107.368 77.6924C106.922 74.8489 106.525 71.9979 106.143 69.144C105.76 66.2902 105.392 63.4345 105.001 60.5817C104.816 60.5601 104.63 60.5395 104.444 60.518C104.349 61.0314 104.121 61.5607 104.176 62.0573C104.45 64.4857 104.721 66.9151 104.993 69.3445C105.264 71.7739 105.535 74.2024 105.812 76.6318C106.848 88.3534 110.113 99.7733 107.87 111.93C106.716 118.292 105.859 124.053 104.638 130.45C104.573 130.851 104.441 131.22 104.308 131.588C99.7903 125.728 99.0648 117.924 100.153 110.791C100.318 111.361 100.549 111.93 100.714 112.499C101.011 112.332 101.571 112.198 101.538 111.997C101.176 108.581 100.879 104.697 99.9224 101.716C99.9881 101.716 100.055 101.716 100.12 101.716C98.8014 98.2331 95.8655 96.0557 92.7328 94.1135C92.0073 93.6451 91.9745 92.7072 92.0729 91.9033C93.3262 83.5977 94.3817 75.6274 95.9855 67.5813C96.3351 65.8124 96.9388 63.9695 97.8996 62.4733C102.335 55.5627 106.891 48.7289 111.495 41.9326C115.863 35.4857 120.345 29.1176 124.92 22.5086V33.9258ZM124.92 18.4397C124.762 18.9475 124.52 19.4393 124.237 19.8497C119.164 27.2044 114.025 34.5123 108.921 41.8454C106.956 44.6702 105.112 47.5858 103.06 50.3432C101.653 52.2348 99.9815 53.924 98.4292 55.7032C98.2127 55.6282 97.9971 55.5542 97.7806 55.4793C98.1443 51.86 98.3523 48.2173 98.8998 44.6271C100.755 32.4595 102.766 20.3172 104.617 8.14963C104.748 7.2858 104.958 6.73022 105.377 6.40511H124.84C124.87 6.44072 124.897 6.47819 124.921 6.51754V18.4397H124.92Z" fill="black"/>
</svg>
