<svg width="202" height="143" viewBox="0 0 202 143" fill="none" xmlns="http://www.w3.org/2000/svg">
<path d="M201.438 60.2914L201.303 57.7866L191.575 55.0115L182.109 38.8936L183.54 20.6219L183.255 19.6906L173.017 6.84261L172.045 6.3454L166.21 6.06813L158.582 1.83772L157.814 1.67744L137.025 3.69437L126.462 0.275879L125.564 0.306297L100.832 10.1816L78.3186 13.9276L50.1073 11.6042L49.2268 11.8487L18.8049 33.7483L18.2864 34.5322L12.7287 59.0606L12.8571 59.9884L18.0353 69.5103L13.4983 76.4374L13.2927 76.9872L11.8306 87.7914L11.8189 87.9692V102.566L3.75274 119.819L3.69201 120.789L6.00431 127.969L1.6308 130.636L0.993164 131.771V138.195L2.24624 139.519L23.8931 140.687L24.7409 140.436L27.9583 138.1L28.2818 136.288L26.105 133.029L24.4607 122.36L33.1937 105.489L46.1064 95.6158L55.8694 99.5666L67.9798 116.716V135.567L68.6746 136.735L75.6956 140.531L76.5715 140.667L91.9098 137.747L92.8358 137.058L97.0961 128.881L96.6173 127.138C93.9441 125.486 90.7828 123.384 90.2748 122.827C89.7609 122.029 85.3267 114.403 82.3219 109.211L82.0556 94.0727L94.3657 92.2031L94.9064 91.9926L105.089 85.1322L108.637 97.779L108.062 129.023L101.843 138.335L102.581 140.349L108.724 142.101L109.086 142.152H131.61L132.874 141.221L134.199 136.988L138.501 134.035L139.065 133.12L139.885 127.118L149.537 116.916L149.895 116.13L150.48 109.999L150.318 109.225L139.058 89.0514L138.219 74.3947L144.188 63.0208L151.845 61.542L152.874 59.8994L152.712 59.2887L163.328 65.2986L163.468 65.3676L173.956 69.7653L174.741 77.7371L172.695 94.6623L172.694 94.9688L174.156 108.129L173.407 115.797L172.523 114.236L170.716 113.738L163.132 118.064L162.65 119.896L168.207 129.24L169.345 129.887H178.706L179.86 129.211L183.956 121.911L184.118 121.403L186.582 98.4318L192.231 83.4791L192.316 83.0018L192.205 64.0433L201.438 60.2914ZM189.56 56.8144L190.339 57.4181L196.874 59.2817L190.534 61.8567L175.782 67.7203L175.708 67.6209L175.098 67.3647L151.098 36.4286L179.63 39.9044L189.56 56.8144ZM177.26 76.2642L176.563 69.1944L189.559 64.0292L189.662 81.5394L177.26 76.2642ZM183.722 100.28L181.587 120.177L175.753 119.041L176.776 108.571L183.722 100.28ZM180.857 20.9366L179.505 38.2186L150.585 34.696L166.007 8.71448L171.32 8.96718L180.857 20.9366ZM164.435 8.11665L149.362 33.5097L138.26 6.24128L157.658 4.35888L164.435 8.11665ZM132.669 108.853L134.054 110.602L131.883 111.421L132.669 108.853ZM129.293 114.222L111.606 97.9884L136.513 90.6612L129.293 114.222ZM125.002 128.221L118.43 139.354L110.705 129.438L110.834 122.413L128.45 116.975L125.002 128.221ZM111.248 99.9082L128.075 115.355L110.866 120.667L111.248 99.9082ZM135.556 74.1876L136.32 87.5305L102.573 66.5165L119.294 55.3485L135.556 74.1876ZM58.3662 74.9024L45.0215 93.1075L33.474 101.936L43.8279 71.5576L57.9493 51.1719L58.3662 74.9024ZM15.8608 77.7488L41.8298 72.29L31.129 103.687L14.4652 102.152V88.0605L15.8608 77.7488ZM22.4976 34.3567L49.1334 15.1829L48.5857 37.6266L22.4976 34.3567ZM50.8092 14.3242L75.6723 16.3716L50.2603 36.8006L50.8092 14.3242ZM62.463 29.1155L93.6533 26.11L100.027 43.8622L88.9119 49.9739L59.116 47.785L50.6037 38.6503L62.463 29.1155ZM126.417 3.04975L135.049 5.84468C125.818 16.1587 105.976 38.2116 101.401 42.7894L95.2042 25.5308L126.417 3.04975ZM101.167 65.4624C99.5824 63.5718 94.0912 56.2084 90.3227 51.09L101.047 45.1924L117.841 54.3248L101.167 65.4624ZM60.0094 74.1537L59.5761 49.4813L88.6562 51.6176C89.3814 52.6027 91.7381 55.7989 94.1321 59.0021C97.0727 62.9354 98.6318 64.9582 99.4855 66.0158L60.0094 74.1537ZM118.971 53.0531L102.449 44.0681C107.23 39.3113 127.079 17.2209 134.617 8.80807L124.998 35.0785L118.971 53.0531ZM101.407 12.7753L101.68 12.6992L120.764 5.07955L93.9126 24.4183L64.8173 27.2225L78.0698 16.5681L78.2637 16.5845L78.5895 16.5716L101.407 12.7753ZM15.4205 59.1601L20.7131 35.805L48.9897 39.3499L57.3981 48.3734L20.4901 68.4819L15.4205 59.1601ZM20.6827 70.3023L20.6839 70.2637L56.0633 50.9859L42.5912 70.4369L17.0835 75.7986L20.6827 70.3023ZM14.1698 103.79L29.4893 105.202L7.57037 117.907L14.1698 103.79ZM8.27107 129.692L8.84214 128.151L6.6618 121.381L20.9245 122.759L3.64063 136.124V132.517L8.27107 129.692ZM25.3716 136.702L23.5661 138.012L5.18917 137.02L22.0339 123.996L23.5334 133.725L23.7413 134.26L25.3716 136.702ZM22.076 121.204L7.59723 119.806L29.3153 107.218L22.076 121.204ZM47.0535 93.1367L59.3484 76.3648L78.9749 92.5728C75.1409 93.5263 64.5569 95.7796 57.2708 97.2899L57.2229 97.2525L47.0535 93.1367ZM79.4105 94.1639L79.6546 108.033L59.339 98.5534C64.3805 97.5029 75.1981 95.225 79.4105 94.1639ZM59.8634 100.628L79.2085 109.655L69.9791 114.952L59.8634 100.628ZM76.5411 137.971L70.6296 134.775V118.603L89.4059 135.523L76.5411 137.971ZM88.0956 124.333C88.5476 125.01 90.5936 126.492 94.1823 128.744L91.0432 134.768L70.709 116.444L80.2723 110.955C81.9669 113.881 87.5643 123.536 88.0956 124.333ZM93.6767 89.6235L80.5153 91.6229L80.479 91.6662L61.0604 75.6301L100.631 67.4723C101.378 69.1933 103.377 75.7003 105.165 81.9184L105.131 81.9055L93.6767 89.6235ZM107.145 82.6473L107.09 82.6274C106.872 81.8623 105.847 78.2882 104.761 74.7082C103.888 71.8337 103.274 69.9163 102.828 68.627L135.782 89.1473L111.013 96.4347L107.145 82.6473ZM105.057 138.293L109.879 131.072L116.441 139.496H109.273L105.057 138.293ZM130.64 139.496H120.269L125.924 129.918L131.746 135.964L130.64 139.496ZM132.835 134.707L127.429 129.093L137.192 127.277L136.523 132.178L132.835 134.707ZM137.789 125.479L126.957 127.494L131.269 113.423L135.59 111.795L147.744 110.816L147.305 115.421L137.789 125.479ZM147.267 109.191L135.782 110.116L133.259 106.93L137.776 92.1868L147.267 109.191ZM136.246 72.4526L120.377 54.0686L126.556 35.6413L136.919 7.33866L148.358 35.4318L142.144 61.2191L142.142 61.2215L136.246 72.4526ZM144.058 60.3428L144.854 57.039L149.395 57.0998L149.953 59.2045L144.058 60.3428ZM151.277 55.4269L151.226 55.4666L145.251 55.3871L149.625 37.2347L171.99 66.0637L164.564 62.9494L151.277 55.4269ZM165.618 119.697L170.877 116.698L173.158 120.725L169.65 126.473L165.618 119.697ZM177.933 127.232H171.127L175.165 120.616L181.007 121.753L177.933 127.232ZM184.278 97.0372L176.609 106.193L175.345 94.8261L177.366 78.1103L189.481 83.2627L184.278 97.0372Z" fill="black"/>
</svg>
