<svg width="212" height="223" viewBox="0 0 212 223" fill="none" xmlns="http://www.w3.org/2000/svg">
<g filter="url(#filter0_d)">
<path d="M23.0275 129.888L26.0945 146.43L26.4722 147.009L54.6431 166.175V183.753C52.8295 185.673 44.4206 194.597 43.4308 196.124L44.4383 197.474L62.4881 192.16L62.952 192.176L71.3077 184.124L151.049 167.601L151.706 166.4L145.167 149.353L144.994 149.07L116.934 118.222L112.976 100.324L129.282 102.313L141.285 111.48L146.612 124.297L147.812 124.77L159.872 119.305L169.606 116.768L170.27 116.018L171.265 108.584L174.077 105.51L174.29 104.703L172.907 98.6941L171.91 98.006L166.815 98.7017L149.227 75.0221L153.107 76.9444L153.986 76.8988L163.922 70.6339L163.392 68.9778C160.487 69.1412 157.025 69.216 156.25 69.0652C155.447 68.3125 151.556 63.3325 147.89 58.4983L154.456 57.3996L155.065 56.0324L150.076 48.1911L149.443 47.7844L144.203 47.0431L191.697 6.92707L190.648 5.47363L143.531 34.3841L143.388 34.4005L143.205 34.583L137.154 38.2971L138.778 28.2104L137.202 27.4919L131.277 34.5843H115.18L114.638 34.7668L110.917 37.5849V34.4588L110.753 33.9431L100.429 19.2401L98.8336 19.4974L94.0595 35.3509L94.1342 36.0466L96.5879 40.4589L87.6669 38.0677L86.5605 38.7267L85.2297 44.306L72.1645 36.7296L71.4357 36.6523L47.3457 44.4935L47.2747 46.1751L61.8988 52.3462L39.9062 52.625L34.3108 41.8642L32.643 42.0618C30.8763 49.1668 26.7662 65.8035 26.7662 66.8261C26.7662 67.4001 27.1248 67.8956 29.3478 69.4808C30.5303 70.3235 32.174 71.4196 34.2348 72.74C36.2524 74.0312 38.284 75.2908 39.6502 76.1297L26.007 80.6344L25.495 81.0678L10.6973 109.024L10.7264 109.915L23.0275 129.888ZM27.7928 145.734L25.0324 130.846L73.8868 145.612L80.1222 171.909L55.9295 164.878L27.7928 145.734ZM98.5992 69.6962L98.5852 69.7609L98.5738 69.7571L85.3666 105.893L72.1302 75.7989L102.851 51.8849L108.021 48.7842L98.5992 69.6962ZM102.515 65.3777L118.114 70.6745C117.607 73.722 113.985 87.7078 111.393 97.4181L100.316 84.7299V70.2589L102.515 65.3777ZM71.603 73.9336L67.3916 54.4117L89.54 59.972L71.603 73.9336ZM83.866 106.942L57.6062 99.851L70.9072 77.4792L83.866 106.942ZM55.4568 99.9511L55.3301 100.41V128.595L35.8291 109.224L42.5107 77.2498L69.4206 76.4654L55.4568 99.9511ZM57.1272 101.582L83.4567 108.692L57.1272 128.93V101.582ZM85.2652 109.568L107.912 140.191L58.3426 130.261L85.2652 109.568ZM103.87 141.213L74.907 143.975L59.8343 132.392L103.87 141.213ZM107.799 142.642L81.8307 171.332L75.7524 145.698L107.799 142.642ZM46.7703 194.917C48.9692 192.439 52.6572 188.475 55.5303 185.429L60.5098 190.872L46.7703 194.917ZM62.369 190.243L56.4377 183.762V166.896L79.6102 173.629L62.369 190.243ZM73.7335 181.789L81.9751 173.847L81.9941 173.783L82.017 173.804L109.457 143.488L114.79 173.282L73.7335 181.789ZM116.549 172.916L111.256 143.347L148.474 166.3L116.549 172.916ZM149.077 164.563L115.233 143.69L143.66 150.439L149.077 164.563ZM141.71 148.13L111.125 140.868L116.554 120.473L141.71 148.13ZM109.63 139.494L87.8659 110.063L115.024 119.231L109.63 139.494ZM114.889 117.29L86.6036 107.742L98.5206 75.1387V85.067L98.7424 85.6575L110.998 99.6964L114.889 117.29ZM112.96 98.5116C113.558 96.27 115.067 90.5918 116.518 84.9567C117.61 80.7219 118.455 77.3373 119.03 74.898C119.374 73.442 119.626 72.3066 119.778 71.5248C119.797 71.4297 119.814 71.341 119.829 71.2561L130.524 74.8878L141.771 99.7661L129.658 100.549L112.96 98.5116ZM118.753 70.8912C118.753 70.8924 118.753 70.8912 118.753 70.8912V70.8912ZM127.982 54.9388H135.035L144.01 70.4312L126.29 61.6535L125.073 62.8282L129.513 72.6475L119.943 69.3985L119.971 47.4384H127.084V54.0416L127.982 54.9388ZM137.644 55.86L145.053 58.4945L145.3 69.0753L137.644 55.86ZM138.751 75.785L131.841 73.4382L127.745 64.3779L136.681 68.8041C136.939 70.3121 137.96 73.4635 138.751 75.785ZM147.915 122.753L142.85 110.569L142.567 110.2L132.084 102.194L142.754 101.505L158.072 118.15L147.915 122.753ZM165.69 100.197L166.532 100.552L171.34 99.8954L172.433 104.646L169.749 107.581L169.522 108.067L168.569 115.183L159.867 117.451L144.662 100.924L161.226 94.1868L165.69 100.197ZM160.118 92.6966L143.586 99.4215L132.852 75.6785L139.909 78.0748L141.046 76.9267C140.151 74.3772 139.237 71.5666 138.757 69.8331L145.687 73.2658L160.118 92.6966ZM150.054 64.2702C154.761 70.3463 155.148 70.5376 155.43 70.677C155.907 70.9127 157.473 70.9938 160.099 70.9191L153.453 75.1096L147.165 71.9949L146.888 60.1456C147.734 61.2544 148.884 62.761 150.054 64.2702ZM181.47 13.2122L170.857 22.1762L165.863 22.7882L181.47 13.2122ZM162.554 25.002L168.351 24.2923L160.681 30.7714L162.554 25.002ZM160.27 26.2197L158.178 32.6645L147.778 33.8848L160.27 26.2197ZM144.305 36.1011L155.996 34.7287L143.238 45.5035L144.305 36.1011ZM148.783 49.5026L152.823 55.8512L146.133 56.9701V56.9713L135.857 53.3168L135.554 53.142H132.141L142.226 48.5725L148.783 49.5026ZM142.373 37.2022L141.256 47.0418L130.138 52.0801L136.623 40.7313L142.373 37.2022ZM132.495 35.9287L136.485 31.1528L135.094 39.7822L128.879 50.6596V46.6883L132.495 35.9287ZM110.917 39.8392L115.482 36.3811H130.448L127.335 45.6429H110.917V39.8392ZM118.174 47.4384L118.146 68.7889L103.257 63.7329L110.599 47.4384H118.174ZM109.12 34.7439V46.0319L106.57 47.5614L101.498 23.8894L109.12 34.7439ZM95.8895 35.5055L99.5484 23.3584L104.944 48.5371L102.768 49.8423L99.2316 41.5233L99.0694 41.5917L99.1898 41.4371L95.8895 35.5055ZM88.0952 40.0407L97.7488 42.6283L101.247 50.8585L91.924 58.1156L86.7658 45.6137L88.0952 40.0407ZM50.1934 45.4553L71.6119 38.4834L85.1106 46.3119L90.0343 58.2448L66.4955 52.3348L50.1934 45.4553ZM28.5975 66.6221C28.9448 64.6567 31.6798 53.422 33.8153 44.8015L38.5692 53.9441L39.3777 54.4281L65.4855 54.0961L69.9212 74.6547L42.0139 75.4682C36.0839 71.8783 29.7065 67.7511 28.5975 66.6221ZM26.9132 82.226L40.5767 77.7136L33.9699 109.333L34.2158 110.154L55.5949 131.39L55.6279 131.357L55.6811 131.464L70.1988 142.62L24.4659 128.798L12.5248 109.411L26.9132 82.226Z" fill="black"/>
</g>
<defs>
<filter id="filter0_d" x="0.697266" y="0.473633" width="211" height="222" filterUnits="userSpaceOnUse" color-interpolation-filters="sRGB">
<feFlood flood-opacity="0" result="BackgroundImageFix"/>
<feColorMatrix in="SourceAlpha" type="matrix" values="0 0 0 0 0 0 0 0 0 0 0 0 0 0 0 0 0 0 127 0"/>
<feOffset dx="5" dy="10"/>
<feGaussianBlur stdDeviation="7.5"/>
<feColorMatrix type="matrix" values="0 0 0 0 0.415686 0 0 0 0 0.415686 0 0 0 0 0.352941 0 0 0 0.5 0"/>
<feBlend mode="normal" in2="BackgroundImageFix" result="effect1_dropShadow"/>
<feBlend mode="normal" in="SourceGraphic" in2="effect1_dropShadow" result="shape"/>
</filter>
</defs>
</svg>
