<svg width="159" height="188" viewBox="0 0 159 188" fill="none" xmlns="http://www.w3.org/2000/svg">
<g filter="url(#filter0_d)">
<path d="M138.244 95.434L128.322 82.8379L136.022 86.1377L131.452 76.3971L127.839 65.2793L118.363 13.1271L118.347 13.036L114.273 6.07337L91.0853 27.7293L86.5864 25.7533L62.9096 25.5964L58.3821 27.5226L35.5102 5.61182L31.3366 12.5271L21.087 64.6614L17.3118 75.7387L12.601 85.4288L20.3472 82.2145L10.2437 94.6998L16.5309 92.6161L15.8204 107.95L22.3294 102.962L23.2026 120.052L27.5415 115.619L36.6809 137.311L37.3144 133.993L51.802 152.034L50.0908 144.819L62.5517 157.428L65.6077 147.628L73.6387 162.612L82.0649 147.57L85.0298 157.578L97.6721 145.11L95.8565 152.305L110.606 134.425L111.191 137.75L120.645 116.16L124.919 120.641L126.04 103.562L132.476 108.622L131.988 93.2813L138.244 95.434ZM133.21 83.6995L124.587 80.004L124.62 80.0452L120.254 78.231L123.181 69.0966L133.21 83.6995ZM106.954 77.1953L106.211 80.0859L103.185 91.0812L95.7523 95.013L95.5013 95.2684L93.444 99.4741L89.234 88.0055L91.9333 84.4097L96.7929 82.4484L97.1016 82.169L102.645 71.0118C102.765 70.7933 103.994 68.4948 103.975 65.8147L105.078 66.7717L104.971 66.7889L106.954 77.1953ZM43.8248 66.4079L44.9417 65.4633C44.8839 68.1422 46.0779 70.453 46.1954 70.6733L51.5762 81.8908L51.8817 82.1745L56.712 84.1894L59.3589 87.8147L54.9822 99.2365L52.986 95.0087L52.7377 94.7503L45.3627 90.7366L42.4967 79.708L41.7961 76.8095L43.9317 66.4264L43.8248 66.4079ZM81.8995 80.7967L83.895 92.4554L79.2433 91.6357L79.1344 91.6259L69.4074 91.5465L69.2945 91.5551L64.6322 92.3231L66.797 80.6883L66.7996 80.5166L65.1866 69.9477L74.4223 79.6532L83.6626 70.0936L81.8988 80.625L81.8995 80.7967ZM84.0955 93.629L84.4966 95.9706L78.9677 93.9416L78.5534 93.9293L74.7915 95.0586L73.7104 95.0272L69.9499 93.8561L69.5362 93.8641L63.9794 95.8315L64.4144 93.4949L69.4532 92.6647L79.068 92.7428L84.0955 93.629ZM65.5818 80.5856L63.5438 91.541L57.813 83.6909L63.0278 72.9084L63.061 72.9134L63.3485 72.1903L63.409 72.1558L63.3798 72.1115L64.0365 70.4598L65.5818 80.5856ZM59.9327 60.7899L52.816 57.188L56.1516 52.0236L61.0018 48.7213L65.9682 59.7462L64.0558 66.7673L59.9327 60.7899ZM63.6268 68.2338L62.5683 70.8955L57.7732 63.7082L57.7891 63.6614L48.1278 60.849C50.3139 60.4613 54.2225 60.1936 59.1053 61.6786L63.6268 68.2338ZM47.228 67.8105L53.929 71.6278L61.7814 72.733L56.8143 83.0041L52.5962 81.2447L47.3037 70.2111L47.2918 70.1877C47.2778 70.1619 46.0786 67.9114 46.1616 65.3925L47.228 67.8105ZM51.9481 95.6198L57.0381 106.401L49.8663 98.0741L46.4989 92.6542L51.9481 95.6198ZM60.2043 88.9729L63.2463 93.1398L62.0204 99.727L55.9231 100.144L60.2043 88.9729ZM84.994 91.685L83.1154 80.7086L84.8081 70.6001L85.4409 72.2586L85.4103 72.3029L85.4708 72.338L85.7484 73.0647L85.7816 73.0604L90.839 83.8989L84.994 91.685ZM83.033 59.8662L88.1602 48.8967L92.9619 52.2525L96.2218 57.4532L89.0527 60.9764L84.8439 66.907L83.033 59.8662ZM88.3714 89.1544L92.4898 100.372L86.3985 99.8876L85.2689 93.2875L88.3714 89.1544ZM102.02 92.9878L98.5752 98.3688L91.2846 106.614L96.5299 95.8918L102.02 92.9878ZM101.555 70.5133L101.543 70.5367L96.0903 81.5111L91.847 83.2238L87.0293 72.8992L94.8977 71.8807L101.653 68.1385L102.754 65.7341C102.798 68.2455 101.57 70.4874 101.555 70.5133ZM91.1776 63.9051L86.2696 71.0518L85.2503 68.3797L89.8668 61.8743C93.808 60.7253 97.0784 60.7186 99.1409 60.9204C99.7917 60.9838 100.365 61.0718 100.854 61.1647L91.1617 63.8583L91.1776 63.9051ZM99.3295 59.8145C97.9483 59.6755 96.0578 59.6238 93.804 59.9093L97.2856 58.1985L105.633 56.1726L119.072 57.8748L122.043 66.8498L103.23 60.6287C103.047 60.5592 101.648 60.0478 99.3295 59.8145ZM105.557 55.0341L97.356 57.0243L94.2648 52.0931L104.428 47.0191L117.718 56.5738L105.557 55.0341ZM93.4819 51.2118L82.371 43.4467L86.8208 36.4367L92.5682 35.761L103.497 46.2123L93.4819 51.2118ZM87.1615 48.1995L81.7561 59.7647L83.9122 68.1514L74.4289 77.9627L64.9682 68.0191L67.2452 59.6588L62.0085 48.0345L68.0095 43.9483L74.567 40.0189L81.2228 44.048L87.1615 48.1995ZM55.6442 50.9768L45.7034 45.8665L56.7837 35.5369L62.5205 36.2767L66.8674 43.3347L55.6442 50.9768ZM54.8487 51.8494L51.6858 56.7461L43.514 54.6649L31.3353 56.0686L44.7611 46.6634L54.8487 51.8494ZM43.4243 55.8021L51.7409 57.9203L55.198 59.6699C52.9475 59.3591 51.0556 59.3905 49.6724 59.5136C47.3509 59.721 45.9451 60.2164 45.7605 60.2847L26.8596 66.2959L29.962 57.3535L43.4243 55.8021ZM45.9823 61.3974L53.7318 63.6528L45.382 63.6245L45.4125 63.6934L45.3043 63.6374L29.5271 76.9769L26.6517 67.5452L45.9823 61.3974ZM42.4601 67.5618L40.5543 76.8279L41.2217 79.5886L31.7111 85.6497L29.8604 78.215L42.4601 67.5618ZM41.5192 80.7591L44.2597 91.304L47.4624 96.4586L32.3765 86.5851L41.5192 80.7591ZM48.938 98.7978L50.4693 100.576L52.6321 121.879L41.8333 109.933L40.709 100.714L34.9304 92.0043L32.9443 88.3298L48.938 98.7978ZM51.8545 102.183L58.9632 110.437L66.5446 119.963L67.0307 120.192L72.7263 120.234L64.1846 132.605L53 113.271L52.9807 113.281L51.8545 102.183ZM55.9391 101.264L62.3067 100.829C62.5988 101.071 62.974 101.285 63.4329 101.47C64.4037 102.144 65.5379 103.13 65.8328 104.125C66.3886 105.999 66.1342 107.432 66.1323 107.445L66.6482 108.095L71.1744 108.667L72.0768 110.145L67.9969 111.393L59.8835 109.62L55.9391 101.264ZM73.0855 109.513L72.5078 108.565L74.0929 108.312L74.1002 108.32L75.7836 108.608L75.1959 109.543H74.1513L73.0855 109.513ZM80.254 111.485L76.2026 110.176L77.1157 108.725L81.6498 108.203L82.1751 107.56C82.1724 107.546 81.94 106.11 82.5224 104.243C82.8318 103.253 83.984 102.277 84.9661 101.612C85.4256 101.432 85.8021 101.224 86.097 100.986L92.4566 101.491L88.3913 109.802L80.254 111.485ZM89.301 110.631L96.5286 102.456L95.241 113.539L95.2204 113.529L83.7535 132.745L75.259 120.253L81.0914 120.296L81.5821 120.072L89.301 110.631ZM97.937 100.864L99.4942 99.1036L115.639 88.8141L113.6 92.4653L107.695 101.109L106.437 110.316L95.4654 122.141L97.937 100.864ZM101.004 96.7799L104.28 91.6628L107.174 81.148L116.231 87.075L101.004 96.7799ZM107.488 79.9812L108.195 77.2286L106.424 67.9409L118.868 78.7326L116.91 86.147L107.488 79.9812ZM103.638 63.9863L103.53 64.0405L103.561 63.9722L95.1859 63.9082L102.993 61.7389L122.233 68.1003L119.22 77.4999L103.638 63.9863ZM130.296 76.7485L130.306 76.7799L131.189 78.6631L123.536 67.5181L120.847 59.3955L126.699 65.6793L130.296 76.7485ZM126.285 63.5149L120.082 56.8545L109.314 49.1133L118.377 53.13L118.167 18.8374L126.285 63.5149ZM117.149 51.3442L105.067 45.9889L103.631 29.4722L113.82 12.6175L116.92 13.713L117.149 51.3442ZM116.593 12.3997L113.27 11.2255L102.389 29.2248L103.747 44.8369L93.5788 35.1136L114.062 8.07281L116.593 12.3997ZM91.7016 28.7478L109.533 12.0957L92.45 34.6477L87.5944 35.2188L91.7016 28.7478ZM63.1732 26.7158L86.3062 26.869L90.3555 28.6481L81.3729 42.8005L74.5704 38.6829L67.8721 42.6965L59.098 28.45L63.1732 26.7158ZM57.7519 28.5337L61.7654 35.0502L56.9172 34.4249L40.1612 11.6821L57.7519 28.5337ZM35.6941 7.61249L55.7823 34.8779L45.4736 44.488L47.058 28.8931L36.4345 10.767L33.0645 11.9695L35.6941 7.61249ZM32.6381 13.321L35.8734 12.1665L45.8129 29.1257L44.1369 45.6258L31.9754 50.8481L32.6381 13.321ZM31.3233 18.8854L30.727 52.618L39.8418 48.7041L28.9653 56.3234L22.6667 62.9143L31.3233 18.8854ZM18.452 76.135L22.2212 65.075L28.1644 58.8557L25.3568 66.9477L17.5436 78.004L18.452 76.135ZM15.4485 83.0207L25.6882 68.5311L28.4825 77.6963L24.0918 79.4618L24.125 79.4212L15.4485 83.0207ZM13.6297 92.3884L22.6276 81.2699L28.7601 78.8046L30.6101 86.238L16.9605 91.2843L13.6297 92.3884ZM22.4808 101.389L17.1524 105.473L17.768 92.1914L31.0238 87.291L33.6462 92.1434L22.4808 101.389ZM27.2912 114.202L24.2784 117.281L23.5001 102.05L34.2591 93.141L39.373 100.848L27.2912 114.202ZM36.238 133.164L28.448 114.673L39.6738 102.264L40.6347 110.143L36.238 133.164ZM37.6052 132.472L41.3133 113.057L49.4015 147.162L37.6052 132.472ZM61.9839 155.191L49.5721 142.632L42.3738 112.281L52.9063 123.931L64.8075 146.136L61.9839 155.191ZM73.0703 159.023L54.0153 123.47L53.2689 116.118L64.0916 134.827L73.4807 121.227L73.0703 159.023ZM67.3455 119.076L61.9926 112.35L66.3673 115.061L66.8368 115.143L73.7157 113.763L74.4827 113.789L81.3596 115.25L81.8304 115.172L86.2417 112.511L80.7932 119.176L67.3455 119.076ZM73.6619 160.127L73.6467 160.099H73.6779L73.6619 160.127ZM74.2868 159.011L74.6939 121.533L83.8219 134.955L94.9123 116.371L94.059 123.715L74.2868 159.011ZM85.6295 155.347L82.8889 146.098L95.16 124.192L105.861 112.659L98.2232 142.926L85.6295 155.347ZM98.3281 147.458L106.911 113.446L110.337 132.9L98.3281 147.458ZM111.694 133.607L107.632 110.541L108.707 102.672L119.752 115.204L111.694 133.607ZM123.882 117.858L120.915 114.747L109.027 101.259L114.253 93.6087L124.882 102.636L123.882 117.858ZM125.91 101.988L114.878 92.6179L117.573 87.7956L130.756 92.8425L131.179 106.13L125.91 101.988ZM118.003 86.7488L119.961 79.3357L126.057 81.8687L134.894 93.0862L131.578 91.9453L118.003 86.7488Z" fill="black"/>
</g>
<defs>
<filter id="filter0_d" x="0.243652" y="0.611816" width="158" height="187" filterUnits="userSpaceOnUse" color-interpolation-filters="sRGB">
<feFlood flood-opacity="0" result="BackgroundImageFix"/>
<feColorMatrix in="SourceAlpha" type="matrix" values="0 0 0 0 0 0 0 0 0 0 0 0 0 0 0 0 0 0 127 0"/>
<feOffset dx="5" dy="10"/>
<feGaussianBlur stdDeviation="7.5"/>
<feColorMatrix type="matrix" values="0 0 0 0 0.415686 0 0 0 0 0.415686 0 0 0 0 0.352941 0 0 0 0.5 0"/>
<feBlend mode="normal" in2="BackgroundImageFix" result="effect1_dropShadow"/>
<feBlend mode="normal" in="SourceGraphic" in2="effect1_dropShadow" result="shape"/>
</filter>
</defs>
</svg>
